<?xml version="1.0" standalone="no"?>
<!DOCTYPE svg PUBLIC "-//W3C//DTD SVG 20010904//EN"
 "http://www.w3.org/TR/2001/REC-SVG-20010904/DTD/svg10.dtd">
<svg version="1.0" xmlns="http://www.w3.org/2000/svg"
 width="2547.000000pt" height="1347.000000pt" viewBox="0 0 2547.000000 1347.000000"
 preserveAspectRatio="xMidYMid meet">
<metadata>
Created by potrace 1.16, written by Peter Selinger 2001-2019
</metadata>
<g transform="translate(0.000000,1347.000000) scale(0.100000,-0.100000)"
fill="#000000" stroke="none">
<path d="M0 9360 l0 -4111 257 2 c205 1 258 -2 264 -13 6 -11 -38 -12 -257
-10 l-264 3 0 -290 0 -291 185 0 185 0 1 213 c2 198 2 205 10 102 4 -60 10
-153 12 -205 l4 -95 47 -2 c44 -2 46 -1 47 25 0 24 1 25 9 7 6 -13 10 22 11
100 l3 120 3 -110 c5 -171 -13 -155 168 -155 117 0 155 -3 155 -12 0 -10 -89
-12 -420 -10 l-420 3 0 -2316 0 -2315 12735 0 12735 0 0 1075 0 1075 -570 -1
c-351 0 -572 -4 -575 -9 -4 -6 -14 -10 -23 -9 -14 0 -13 2 3 9 13 6 -12 9 -72
9 -56 1 -93 -3 -93 -9 0 -5 -6 -10 -14 -10 -8 0 -16 -7 -20 -15 -3 -9 0 -15 9
-15 18 0 19 -12 4 -27 -12 -12 -3 -53 11 -53 4 0 6 10 4 22 -4 21 -4 22 5 3
14 -28 13 -35 -4 -35 -19 0 -65 47 -60 63 2 6 6 24 9 39 3 14 13 28 22 30 9 2
-294 4 -673 4 -631 1 -690 0 -690 -15 0 -9 -1 -20 -2 -26 -1 -13 -401 -18
-401 -5 0 13 23 25 43 22 9 -2 24 3 32 12 13 13 -69 15 -704 16 -487 0 -721
-3 -726 -10 -3 -5 -14 -10 -23 -10 -15 0 -15 2 -2 10 13 8 12 10 -2 10 -10 0
-18 -4 -18 -10 0 -5 -9 -10 -21 -10 -11 0 -17 5 -14 10 4 7 -75 10 -231 10
l-237 0 21 -23 c31 -32 27 -40 -13 -33 -29 6 -34 4 -29 -9 7 -17 -9 -19 -41
-5 -18 7 -17 9 13 20 22 8 32 18 30 29 -3 14 -29 16 -210 19 -192 2 -207 1
-201 -14 4 -12 3 -15 -6 -10 -17 11 -73 -4 -68 -18 4 -9 -10 -13 -42 -15 -53
-2 -147 -16 -176 -26 -16 -6 -15 -3 5 14 14 12 40 21 60 21 47 0 123 24 113
34 -4 5 2 6 15 3 12 -3 19 -1 16 4 -3 5 -174 8 -407 7 -221 -1 -382 -5 -357
-9 25 -3 39 -7 32 -7 -7 -1 -10 -7 -6 -13 5 -8 9 -8 14 1 5 9 16 8 45 -4 47
-20 76 -20 101 -1 10 8 30 14 44 14 22 0 23 -1 7 -10 -9 -5 -22 -7 -28 -4 -5
4 -3 -10 5 -32 13 -31 13 -35 1 -19 -15 19 -47 23 -213 28 -65 2 -73 4 -69 20
3 11 0 18 -10 18 -8 0 -11 5 -8 11 9 14 -177 9 -187 -6 -5 -6 -8 -6 -8 3 0 8
-21 12 -72 11 -52 -1 -66 -3 -48 -9 14 -4 20 -8 13 -9 -7 -1 -10 -7 -7 -15 4
-11 -8 -14 -57 -15 -56 -1 -60 1 -43 14 10 8 24 15 31 15 6 0 14 3 16 8 7 9
-1734 9 -1750 -1 -6 -4 -13 -3 -15 3 -2 6 -150 10 -393 12 -466 2 -551 6 -515
21 34 14 18 14 477 22 l413 8 2 179 c4 240 22 239 26 -2 l2 -180 34 0 c32 0
34 3 38 38 3 20 4 83 2 139 -2 70 1 103 9 106 9 3 12 -31 12 -130 0 -74 2
-139 6 -144 3 -6 55 -8 125 -7 l119 3 5 140 c6 168 20 154 20 -21 l0 -125 127
3 128 3 0 54 0 54 -87 -2 -88 -2 0 130 0 131 -130 0 -130 0 0 161 c0 155 -1
161 -21 166 -21 6 -21 6 -16 483 2 262 6 481 10 486 3 5 -50 8 -127 6 l-132
-3 1 155 c1 86 4 158 8 162 3 3 11 2 19 -2 16 -10 178 -12 178 -2 0 4 11 3 24
-2 25 -9 36 -5 36 14 0 17 -424 13 -446 -4 -14 -12 -17 -12 -25 3 -9 15 -32
17 -204 17 -136 0 -195 -3 -195 -11 0 -7 -10 -9 -27 -4 -16 4 -68 7 -118 6
l-90 0 40 24 c22 14 45 25 50 26 6 0 177 2 380 3 285 1 376 -2 397 -12 17 -7
70 -13 130 -14 91 -1 103 1 106 16 3 16 -6 17 -99 15 -75 -2 -104 0 -107 10
-3 9 20 12 99 10 94 -1 104 0 104 16 0 16 -10 17 -105 14 -58 -2 -156 -4 -218
-4 -61 0 -112 -4 -112 -8 0 -5 -7 -7 -16 -5 -15 3 -16 69 -15 738 1 404 4 736
6 739 9 8 640 7 651 -1 7 -5 10 -18 7 -29 -6 -20 -6 -20 -20 1 -12 17 -25 20
-78 20 -35 0 -67 -5 -70 -10 -5 -8 -11 -8 -19 -1 -17 14 -435 16 -449 2 -7 -7
-10 -51 -9 -114 1 -56 2 -329 2 -607 0 -278 3 -550 6 -605 l7 -100 218 0 c217
0 219 0 219 21 0 21 -2 21 -215 20 -137 -1 -215 3 -215 9 0 6 76 9 215 7 l215
-3 0 93 c1 51 2 127 4 168 2 41 4 264 5 494 0 231 4 417 7 414 3 -4 7 -289 8
-635 2 -345 4 -632 5 -636 0 -4 31 -7 68 -5 l68 3 1 130 c1 72 3 394 4 718 1
339 6 587 11 587 5 0 9 -26 9 -57 1 -1169 10 -2793 16 -2807 7 -19 8 -19 15 0
3 10 2 25 -3 31 -10 13 -7 41 15 143 l11 55 7 -45 6 -45 1 42 c1 23 7 45 13
49 8 4 10 -9 8 -44 -2 -27 -1 -48 4 -45 4 2 7 23 7 45 0 59 7 43 12 -26 3 -42
1 -59 -9 -63 -20 -8 -16 -23 6 -23 13 0 20 9 23 28 2 15 5 266 7 557 2 292 5
533 8 538 2 4 15 7 29 7 l24 0 0 625 0 625 55 0 55 0 0 60 c0 60 4 65 38 61 8
-1 21 4 30 12 25 21 148 21 156 1 4 -11 14 -14 31 -10 31 8 45 -16 45 -78 l0
-46 63 0 62 0 3 -615 c2 -338 0 -615 -5 -615 -4 0 -8 247 -8 550 0 426 -3 552
-12 562 -7 6 -13 22 -13 35 0 14 -6 23 -16 23 -9 0 -12 -5 -8 -12 4 -7 4 -10
-1 -6 -4 4 -14 3 -22 -4 -7 -6 -17 -8 -21 -4 -4 4 2 14 12 22 17 12 18 14 3
14 -9 0 -17 -5 -17 -11 0 -6 -6 -9 -14 -6 -10 4 -12 -1 -9 -16 3 -16 2 -18 -5
-9 -7 11 -43 14 -150 13 -111 0 -141 3 -145 14 -3 7 -1 16 6 19 7 2 2 5 -10 5
-21 1 -21 -2 -25 -171 -2 -95 -2 -366 -1 -603 l2 -430 53 0 53 0 0 135 c0 74
4 141 8 148 6 8 3 20 -8 32 -15 17 -15 19 0 28 15 8 15 12 4 30 -10 17 -10 23
0 36 10 12 11 19 2 30 -9 11 -9 19 1 36 11 17 11 22 -2 30 -11 7 -12 14 -4 27
6 12 8 59 4 133 -3 63 -2 123 3 133 5 12 4 23 -3 32 -8 10 -8 19 -1 33 8 15 7
23 -5 33 -10 8 -12 15 -4 23 5 5 10 32 10 58 0 26 5 48 10 48 6 0 10 -13 10
-29 0 -18 6 -31 18 -36 16 -6 16 -7 0 -19 -20 -15 -24 -41 -8 -51 8 -5 8 -11
1 -19 -6 -8 -10 -75 -10 -168 1 -86 -2 -161 -5 -167 -4 -6 -2 -20 4 -31 8 -15
8 -25 1 -33 -6 -8 -6 -18 -1 -27 5 -8 6 -26 3 -41 -3 -15 0 -30 6 -34 9 -5 9
-10 0 -21 -25 -30 -3 -44 67 -44 37 0 64 -3 60 -7 -4 -4 -35 -7 -69 -8 -57 0
-62 -2 -65 -23 -2 -13 2 -30 8 -38 9 -10 9 -14 1 -14 -8 0 -11 -31 -9 -107 l3
-108 90 0 90 0 1 140 c2 96 -2 142 -10 148 -8 5 -7 9 3 16 9 6 12 19 8 37 -3
16 -1 37 5 48 7 13 7 21 -1 26 -8 5 -9 14 -2 33 7 18 7 27 -2 30 -9 3 -9 7 0
18 11 14 13 19 13 40 0 8 5 7 16 -2 14 -12 14 -14 0 -25 -21 -15 -20 -31 2
-43 9 -6 11 -11 5 -11 -16 0 -17 -46 -1 -56 8 -5 6 -11 -6 -19 -16 -12 -13
-45 5 -45 5 0 3 -11 -6 -24 -16 -24 -10 -36 25 -49 10 -4 7 -6 -7 -6 -17 -1
-23 -7 -23 -24 0 -13 6 -29 13 -36 10 -11 10 -14 -1 -18 -8 -3 -12 -32 -12
-94 l0 -90 85 3 c70 3 86 1 89 -12 2 -8 5 -73 5 -145 1 -71 6 -134 11 -139 5
-5 20 -6 34 -2 l26 6 2 248 c1 136 2 265 3 287 0 22 2 128 4 235 2 107 6 186
8 175 3 -11 10 -23 15 -26 5 -3 10 -45 11 -92 2 -86 10 -104 37 -87 8 5 10 15
5 26 -7 18 -8 18 -15 -1 -7 -15 -9 -11 -9 20 -1 28 2 36 9 25 10 -16 8 -20 29
55 8 29 7 41 -1 46 -9 6 -9 13 0 31 6 13 13 50 14 83 4 85 18 -827 21 -1348 1
-240 -1 -437 -5 -437 -5 0 -8 -9 -8 -19 0 -17 -8 -20 -47 -23 l-48 -3 -3 -257
-2 -258 -101 2 c-63 0 -105 5 -112 13 -9 9 -11 -16 -9 -109 2 -67 5 -127 7
-133 3 -10 43 -13 155 -13 l150 0 1 213 c1 116 4 264 8 327 l6 115 8 -206 c5
-114 7 -260 6 -325 l-3 -119 62 -3 61 -3 1 322 c0 178 3 325 5 328 5 4 10
-516 6 -606 l-1 -43 49 0 50 0 1 365 c0 348 -1 366 -20 397 -12 20 -28 33 -40
33 -21 0 -21 4 -21 495 l0 495 36 5 c20 3 36 8 35 13 0 4 2 7 5 7 27 0 29 -1
15 -10 -10 -7 15 -10 81 -10 l97 0 2 82 c2 46 3 103 3 128 l-1 45 9 -35 c5
-19 9 -71 8 -115 0 -44 0 -86 0 -92 1 -8 16 -13 41 -13 l40 0 2 93 1 92 8 -80
c5 -44 8 -95 8 -113 0 -18 7 -43 16 -55 20 -29 19 -74 -3 -86 -16 -10 -16 -10
1 -11 9 0 17 -4 17 -10 0 -5 7 -10 16 -10 8 0 12 5 9 10 -3 5 1 10 9 10 8 0
18 -4 21 -10 4 -6 53 -10 115 -10 106 0 110 1 115 23 4 15 46 52 115 101 l109
78 0 167 1 166 -86 -2 c-47 -1 -88 -4 -91 -7 -4 -3 -15 -6 -25 -6 -14 0 -18 8
-18 38 0 38 2 40 105 106 58 37 112 77 120 89 18 25 26 20 18 -12 -4 -14 -41
-45 -104 -87 -55 -35 -99 -67 -99 -70 0 -7 68 33 92 54 10 8 18 12 18 7 0 -4
6 -3 13 2 18 15 60 23 73 15 7 -4 14 -16 17 -27 3 -11 4 5 1 35 -4 40 -2 51 5
40 8 -12 11 -7 12 20 2 30 3 28 9 -15 6 -41 7 -44 8 -16 1 19 5 31 10 27 4 -4
9 -170 12 -369 l5 -362 245 1 244 1 7 24 c4 13 7 194 8 402 l1 377 69 0 c67 0
69 1 73 27 3 16 4 79 3 141 -2 62 1 115 6 118 5 3 9 1 9 -5 0 -5 6 -16 14 -24
14 -14 11 -61 -3 -53 -3 2 -6 -13 -7 -34 0 -30 3 -37 15 -32 14 5 14 3 3 -10
-17 -21 -26 -96 -13 -111 6 -8 48 -12 123 -11 106 0 114 2 124 22 10 21 12 21
25 6 11 -13 11 -18 1 -21 -30 -11 -6 -18 60 -18 l73 0 3 -300 c1 -167 6 -303
12 -309 8 -8 228 -12 236 -3 2 1 4 170 4 375 1 214 6 374 11 378 5 3 5 13 1
22 -7 14 -9 128 -3 153 1 6 80 4 87 -4 10 -10 -8 -54 -22 -54 -8 0 -14 4 -14
8 0 4 -9 5 -20 2 -11 -3 -20 -14 -20 -25 0 -16 6 -19 33 -17 35 3 37 1 37 -36
0 -22 -4 -25 -33 -25 -23 0 -34 -5 -34 -15 0 -10 11 -15 34 -15 21 0 33 5 33
14 0 19 47 27 61 10 16 -19 1 -36 -29 -32 -18 2 -26 -2 -24 -11 1 -7 0 -22 -3
-32 -5 -14 -11 -17 -22 -10 -9 4 -24 6 -35 3 -18 -4 -18 -6 -2 -23 13 -14 21
-16 35 -8 17 9 19 6 19 -31 0 -41 -7 -49 -28 -28 -9 9 -12 7 -12 -11 0 -18 4
-22 20 -18 22 6 32 -17 28 -63 -1 -14 -1 -83 0 -154 2 -118 3 -128 20 -121 9
3 94 6 187 5 94 -1 198 -2 233 -2 53 0 62 -3 62 -19 0 -23 -70 -46 -82 -27 -5
9 -9 8 -13 -4 -10 -27 3 -38 45 -38 58 0 71 8 64 39 -4 14 -3 22 2 18 4 -4 9
-15 10 -23 5 -32 14 -44 33 -44 11 0 21 5 23 10 2 7 11 5 23 -4 17 -12 18 -17
7 -41 -8 -17 -9 -31 -3 -39 5 -6 11 -24 13 -41 1 -16 6 -29 11 -27 4 1 62 3
130 4 113 1 117 2 47 8 -41 4 -65 7 -54 8 l21 2 2 487 c1 268 3 489 5 491 5 4
98 8 244 10 l112 2 0 365 c0 285 3 365 13 366 136 6 748 2 750 -6 2 -5 1 -50
-3 -100 -4 -51 -8 -70 -8 -44 -1 28 -8 52 -17 59 -12 10 -15 9 -15 -4 0 -10 5
-14 10 -11 6 4 10 -7 10 -27 -1 -24 -3 -29 -9 -18 -7 12 -29 15 -103 14 -51
-1 -99 3 -106 9 -18 14 -23 5 -25 -50 l-2 -48 133 3 c121 2 132 1 132 -15 0
-17 -11 -18 -136 -15 -126 3 -135 2 -132 -15 3 -16 16 -18 136 -18 81 0 132
-4 132 -10 0 -6 -50 -9 -136 -8 -123 2 -135 1 -132 -15 3 -15 19 -17 136 -17
111 0 132 -2 132 -15 0 -13 -21 -15 -132 -15 l-132 0 -2 -63 -1 -64 133 4
c114 3 134 1 134 -12 0 -13 -21 -15 -132 -15 -112 0 -133 -2 -133 -15 0 -13
21 -15 133 -15 111 0 132 -2 132 -15 0 -13 -20 -15 -130 -13 -119 2 -156 -5
-136 -24 7 -7 245 -4 256 2 6 4 15 -482 22 -1130 2 -172 3 -179 8 -80 l6 110
3 -90 3 -90 12 65 c12 70 26 80 40 30 9 -32 32 -36 29 -5 -1 16 7 17 85 10 61
-4 91 -11 99 -22 11 -15 13 -15 19 0 8 22 34 22 34 0 0 -14 2 -15 9 -5 7 11
19 -42 23 -105 1 -7 4 -13 8 -13 4 0 12 154 19 343 7 188 13 360 14 382 l2 40
68 3 67 3 140 -92 c77 -51 140 -96 140 -101 0 -15 -21 -8 -63 21 -23 15 -81
53 -129 84 l-88 57 0 -183 0 -182 43 2 c132 8 227 7 230 -2 6 -17 -5 -48 -13
-36 -4 7 -55 12 -133 14 l-127 2 2 -30 c0 -16 -2 -91 -5 -166 -6 -131 -6 -137
13 -142 13 -3 20 0 20 10 0 8 -5 11 -10 8 -5 -3 -10 -3 -11 2 -7 98 5 149 14
58 l4 -40 1 43 c2 44 10 50 41 30 15 -9 22 -8 35 5 9 8 16 25 16 36 0 25 17
36 34 22 7 -6 66 -12 132 -13 98 -2 119 -6 119 -18 0 -12 -24 -16 -135 -20
l-135 -5 -1 -68 c-1 -37 3 -70 7 -73 5 -3 9 -9 9 -15 0 -5 -890 -9 -2356 -9
-1882 0 -2354 3 -2347 12 4 7 10 44 13 81 6 82 12 79 -150 75 l-115 -3 0 -795
c0 -437 2 -831 5 -874 l5 -79 31 -1 c26 -1 30 2 26 20 -4 20 0 21 52 18 l55
-3 3 47 3 47 45 0 c37 0 45 3 44 17 -1 10 2 15 7 12 5 -3 9 -11 9 -19 0 -11
17 -13 84 -11 80 4 85 3 88 -18 2 -15 10 -21 31 -21 18 -1 27 4 27 15 1 13 2
12 10 -2 10 -17 44 -19 68 -4 7 4 12 2 12 -3 0 -15 30 -14 30 2 0 7 8 3 16 -8
9 -11 18 -15 20 -9 3 6 19 9 37 6 32 -4 32 -4 10 13 -13 9 -23 22 -23 28 0 9
2 9 8 0 8 -13 55 -33 75 -33 7 0 4 5 -5 11 -33 19 -21 39 22 39 46 0 50 -9 15
-44 -14 -14 -25 -29 -25 -33 1 -9 60 -77 63 -71 1 1 12 17 25 35 27 40 27 41
0 70 -18 19 -19 25 -8 36 8 8 11 8 6 0 -3 -6 8 -20 26 -31 26 -16 42 -19 78
-13 25 4 52 11 59 16 11 6 12 4 5 -6 -19 -30 -10 -35 26 -16 25 14 36 26 33
38 -4 13 3 18 31 21 20 2 40 0 45 -5 17 -17 -1 -37 -32 -37 -39 0 -33 -5 16
-14 22 -4 37 -4 34 1 -7 11 21 48 29 40 4 -4 1 -13 -6 -22 -19 -23 -3 -31 19
-11 19 17 20 17 31 -3 6 -12 15 -21 21 -21 6 0 7 5 4 10 -8 13 18 13 32 -1 7
-7 15 -6 26 5 12 12 17 13 21 3 3 -7 7 -3 11 11 14 42 25 22 22 -40 -2 -57 0
-63 18 -63 15 0 20 7 21 30 0 17 1 49 2 73 l2 42 40 0 c33 0 40 -3 40 -20 0
-16 -7 -20 -32 -20 -41 0 -32 -9 13 -12 18 -1 37 -7 42 -13 4 -6 10 -5 16 5 7
9 6 19 -2 29 -10 11 -9 13 3 9 8 -2 20 -14 26 -26 13 -26 24 -19 24 15 0 16 8
27 28 34 15 6 35 15 45 20 28 15 19 -2 -20 -35 -42 -37 -41 -61 3 -110 l25
-29 35 34 c39 38 43 70 13 100 -11 11 -18 26 -16 32 2 7 9 2 16 -11 6 -12 18
-22 26 -22 8 0 20 -8 27 -17 9 -13 27 -18 63 -18 56 0 62 10 64 96 1 46 12 61
39 52 6 -3 12 -16 12 -30 l0 -25 20 23 c16 19 21 21 29 10 7 -11 9 -11 13 0 6
17 239 21 250 4 5 -6 8 -6 8 3 0 6 11 12 25 12 l25 0 0 -110 c0 -91 3 -110 15
-110 8 0 18 -1 23 -2 4 -2 9 49 12 112 5 115 5 115 30 115 20 0 26 -6 30 -30
6 -29 6 -29 12 -6 4 12 11 20 16 17 6 -3 13 0 15 6 4 9 6 8 6 -3 1 -19 31 -21
31 -2 0 16 12 17 27 2 13 -13 34 3 46 34 9 23 40 18 45 -6 3 -12 -3 -17 -22
-17 -16 0 -26 -6 -26 -15 0 -24 45 -18 58 8 l11 22 7 -24 c7 -23 8 -23 21 -5
13 18 15 18 24 2 13 -24 31 -23 52 2 26 31 37 16 37 -53 0 -34 3 -85 6 -113 6
-44 9 -51 25 -47 11 3 19 14 19 27 0 44 13 50 112 50 l93 1 3 28 c4 32 22 27
22 -6 0 -18 2 -19 10 -7 6 8 10 51 9 94 -2 70 0 80 17 87 10 3 22 5 27 2 4 -2
7 -41 8 -86 0 -66 2 -77 11 -57 18 44 24 54 36 56 7 1 8 0 2 -3 -5 -2 -8 -9
-4 -14 3 -5 11 -6 17 -2 14 9 437 11 437 2 0 -3 12 -4 27 -1 31 6 53 -18 53
-60 0 -21 5 -28 19 -28 11 0 22 8 24 18 3 12 5 9 6 -8 1 -22 3 -23 12 -7 5 9
17 17 26 17 13 0 13 -3 2 -16 -11 -14 -5 -15 62 -8 41 3 76 8 78 10 2 2 10 -4
17 -14 12 -15 13 -15 14 8 1 21 2 23 13 10 8 -10 30 -15 67 -15 l55 0 7 40 c3
22 7 70 7 106 1 51 5 68 17 73 29 11 34 -4 34 -97 1 -81 2 -90 15 -74 11 15
27 19 79 18 45 0 66 4 66 12 0 7 4 6 10 -3 8 -12 13 -13 29 -3 25 15 41 -2 52
-55 6 -34 7 -32 8 21 l1 57 43 0 c23 0 80 0 125 0 46 0 88 -3 94 -6 5 -3 16 3
23 13 10 15 22 19 47 15 18 -2 38 -9 43 -16 6 -6 37 -12 70 -12 33 -1 113 -3
178 -5 l117 -4 0 35 c-3 234 12 1321 20 1465 6 105 12 429 13 720 3 512 4 532
25 601 12 40 32 88 44 107 l23 36 202 1 c111 0 208 3 217 6 12 4 16 0 16 -15
0 -12 11 -38 25 -59 53 -81 64 -307 65 -1414 0 -430 2 -498 15 -498 17 0 15
-34 21 400 2 190 5 367 7 395 l2 49 38 2 37 1 2 -336 c1 -185 1 -356 0 -381 0
-25 -1 -129 -1 -232 l-1 -188 -120 0 -120 0 0 -93 c0 -61 4 -98 13 -106 10
-11 9 -14 -1 -18 -10 -4 -13 -70 -11 -319 1 -265 5 -334 21 -311 1 1 4 83 7
182 l6 180 43 3 42 3 0 -65 0 -66 48 0 c53 0 63 -5 55 -26 -3 -9 -21 -14 -54
-14 l-50 0 3 -83 3 -82 30 4 c17 1 38 7 47 12 14 7 16 6 12 -6 -4 -8 -10 -15
-15 -15 -5 0 -9 -7 -9 -15 0 -22 18 -18 25 5 9 29 75 29 75 0 0 -25 18 -26 36
-2 11 15 39 18 253 22 l240 5 3 -23 c4 -30 22 -33 26 -4 2 12 8 20 13 16 6 -3
16 -1 24 6 9 7 15 8 20 0 4 -6 33 -8 76 -6 67 5 70 4 79 -20 6 -14 14 -22 20
-19 15 9 12 26 -7 41 -16 12 -13 13 25 8 l42 -7 0 407 c0 325 -3 406 -13 404
-7 -2 -12 1 -12 7 0 5 6 9 13 7 9 -2 12 114 12 558 l0 561 -87 -2 c-52 -1 -88
2 -90 8 -3 7 28 9 87 5 l90 -4 0 75 c0 45 -5 79 -11 83 -8 4 -7 9 2 15 12 7
12 12 0 31 -10 16 -10 23 -2 26 8 3 11 1158 11 4523 l0 4519 -12735 0 -12735
0 0 -4110z m14904 680 c33 0 43 -5 65 -33 12 -15 11 -20 -4 -37 -15 -17 -16
-38 -13 -195 5 -175 9 -194 41 -195 10 0 9 -28 -2 -32 -10 -3 -14 -59 -12
-163 l1 -71 42 -19 c45 -22 72 -54 51 -62 -16 -6 -17 -35 -3 -49 11 -11 3 -44
-10 -44 -5 0 -16 -7 -24 -16 -13 -12 -14 -20 -5 -37 7 -14 -3 -8 -26 16 -35
36 -37 37 -53 19 -28 -31 -68 -44 -82 -26 -22 26 -32 15 -11 -13 12 -14 19
-29 16 -32 -4 -3 -17 9 -31 27 -14 18 -32 32 -40 32 -18 0 -18 -5 2 -36 9 -13
14 -27 11 -31 -4 -3 -12 6 -18 20 -7 15 -16 24 -20 21 -5 -3 -9 3 -9 14 0 10
-11 25 -25 32 -28 15 -31 31 -13 60 10 15 9 22 -6 39 -17 19 -17 20 9 43 14
13 36 25 48 28 21 6 22 12 24 122 2 69 -1 120 -7 123 -18 11 -11 32 15 43 l25
12 0 180 c0 151 -2 182 -15 186 -8 4 -15 13 -15 21 0 8 7 21 15 29 8 9 15 27
16 42 l0 27 16 -22 c10 -16 26 -23 47 -23z m-24 -1103 c0 -118 1 -162 5 -166
2 -2 0 -13 -6 -23 -7 -14 -8 -23 -1 -30 6 -6 8 -25 5 -43 -3 -18 0 -35 6 -39
7 -5 9 -1 5 9 -4 10 -2 15 7 13 10 -2 13 6 11 31 -1 19 3 38 9 42 7 4 8 12 3
20 -15 23 -13 100 2 106 11 4 11 8 -2 20 -19 19 -13 38 12 38 17 0 19 -8 19
-60 0 -33 6 -70 13 -82 8 -15 9 -24 2 -28 -7 -4 -7 -11 -2 -18 5 -7 12 -25 16
-42 l6 -30 -20 24 c-25 29 -25 29 4 -44 14 -33 32 -61 40 -63 18 -4 22 13 5
23 -6 4 -7 14 -4 24 4 9 6 57 6 106 -1 63 2 86 9 75 5 -8 10 -46 10 -85 0
-124 7 -143 56 -166 61 -29 69 -42 53 -81 -7 -18 -15 -37 -16 -43 -22 -96 -42
-154 -60 -173 -33 -32 -29 -55 12 -78 31 -17 32 -44 2 -44 -19 0 -28 8 -36 30
-5 17 -15 30 -20 30 -6 0 -11 7 -11 15 0 8 5 15 10 15 6 0 10 5 10 10 0 15
-26 12 -40 -5 -7 -8 -16 -13 -20 -10 -4 2 -5 -7 -2 -20 2 -14 8 -28 13 -31 5
-3 9 -10 9 -15 0 -6 -13 2 -30 18 -16 15 -30 34 -30 41 0 9 -13 12 -44 11 -35
-2 -42 -6 -39 -20 3 -11 -3 -19 -16 -24 -12 -3 -21 -13 -21 -21 0 -8 -4 -12
-10 -9 -6 4 -4 18 6 37 22 42 0 57 -33 22 -13 -14 -27 -22 -33 -19 -11 7 -2
35 12 35 5 0 6 -6 2 -12 -5 -9 -2 -9 9 1 24 19 21 34 -5 28 -16 -5 -31 1 -50
20 -16 15 -28 32 -28 39 0 52 278 73 384 29 13 -6 17 -5 13 2 -12 19 4 73 22
73 14 1 14 2 -1 11 -19 11 -13 39 8 39 15 0 19 27 6 47 -17 27 -107 46 -217
47 -125 1 -203 -15 -245 -50 -16 -14 -31 -21 -34 -16 -10 17 25 50 76 72 l53
22 -1 64 c0 36 3 67 8 70 7 5 13 -60 10 -113 0 -13 5 -23 12 -23 17 0 36 21
35 40 0 10 -3 9 -9 -5 -7 -17 -9 -14 -9 13 -1 18 3 31 8 28 11 -7 57 42 48 51
-4 3 -14 -2 -23 -13 -8 -10 -13 -12 -9 -4 4 8 -1 6 -9 -4 -15 -19 -16 -19 -16
10 0 23 6 32 31 43 28 12 29 14 14 31 -14 16 -14 19 0 33 19 19 19 31 1 24
-11 -5 -13 0 -6 23 5 16 6 38 3 50 -3 11 0 26 6 34 8 10 9 16 1 21 -15 9 -2
25 15 19 8 -3 15 -16 15 -27z m87 -917 c24 -27 33 -77 11 -63 -19 11 -38 12
-38 2 0 -6 -9 -5 -21 2 -18 9 -26 6 -60 -27 -21 -21 -39 -45 -39 -53 0 -10 14
-2 36 22 20 20 41 37 48 37 18 0 86 -75 86 -95 0 -10 8 -24 18 -31 48 -37 33
9 -24 70 -49 53 -55 69 -21 64 14 -2 23 -11 25 -26 2 -13 21 -41 43 -63 42
-42 45 -49 28 -66 -9 -9 -25 -6 -63 13 -28 13 -41 17 -28 8 12 -9 22 -22 22
-29 0 -16 51 -95 61 -95 4 0 5 17 2 39 -4 31 -2 39 13 43 11 3 26 9 34 12 11
5 16 0 18 -19 1 -21 -3 -25 -23 -25 -22 0 -24 -3 -21 -32 3 -18 5 -49 5 -69 1
-30 4 -35 24 -35 18 1 22 -4 19 -26 -1 -15 4 -41 13 -58 8 -16 14 -35 13 -41
-2 -7 19 -17 47 -24 61 -15 120 -39 129 -54 13 -20 -5 -33 -22 -18 -36 32
-186 65 -307 68 -64 2 -95 9 -95 21 0 6 39 9 103 6 l102 -3 3 29 c6 50 -27 59
-208 59 -153 0 -169 -2 -195 -19 -21 -14 -23 -13 -29 17 -7 35 -1 49 19 49 16
0 23 20 27 79 2 38 -1 45 -20 52 -13 5 -22 17 -22 28 0 18 3 19 25 11 23 -9
25 -7 25 20 0 25 -4 30 -25 30 -14 0 -25 5 -25 10 0 16 32 12 52 -7 17 -15 20
-15 28 -3 8 13 10 12 10 -3 0 -10 -8 -29 -17 -43 -13 -21 -14 -30 -5 -45 8
-12 8 -19 2 -19 -5 0 -10 -9 -10 -20 0 -61 57 39 63 112 3 38 1 45 -11 40 -11
-4 -13 -2 -6 9 10 16 12 29 17 87 3 35 12 49 52 87 53 50 52 51 112 -15z m214
-724 c62 -13 149 -50 149 -62 0 -2 -6 -15 -14 -27 -8 -12 -38 -94 -67 -182
-28 -88 -67 -191 -86 -230 -34 -66 -35 -74 -33 -165 1 -52 3 -120 5 -150 2
-30 6 -170 10 -310 4 -140 9 -258 11 -261 1 -3 4 -106 5 -230 1 -171 4 -229
15 -246 8 -13 10 -24 4 -28 -9 -5 -7 -179 5 -390 3 -49 7 -148 10 -220 13
-315 40 -734 52 -805 3 -19 5 -46 4 -60 -1 -14 3 -77 9 -140 6 -63 15 -176 20
-250 30 -411 48 -570 66 -570 8 0 17 6 19 13 3 6 6 192 8 412 l2 400 189 7
c105 4 192 5 195 2 3 -2 5 -24 6 -47 0 -23 4 -45 9 -49 6 -4 4 -14 -5 -24 -12
-15 -12 -18 3 -27 15 -10 15 -12 0 -23 -14 -10 -14 -14 -3 -28 11 -13 11 -19
1 -31 -22 -27 0 -35 98 -35 72 -1 92 -3 79 -11 -10 -6 -49 -8 -92 -6 -55 4
-77 2 -85 -8 -22 -26 1 -35 98 -37 l97 -2 -100 -5 c-84 -5 -100 -9 -103 -23
-3 -16 7 -18 102 -18 58 0 106 1 107 3 0 1 3 359 6 795 l4 792 -161 0 c-139 0
-161 -2 -167 -16 -3 -9 -1 -26 6 -37 9 -14 10 -22 2 -26 -16 -10 -14 -1061 2
-1061 9 0 9 -2 1 -8 -7 -4 -14 -16 -16 -27 -3 -11 -6 244 -7 567 -1 324 1 599
5 613 l6 25 302 -3 301 -2 3 -378 c2 -357 1 -378 -15 -375 -15 3 -18 14 -18
68 l0 65 -110 0 c-80 0 -109 -3 -108 -12 2 -7 3 -67 4 -133 l1 -122 41 5 c23
3 54 8 70 12 l27 7 1 -323 c0 -178 3 -449 5 -601 l5 -278 -96 0 -95 0 0 74 0
74 -66 1 -66 1 3 -73 4 -72 -30 -1 c-17 -1 -63 -2 -102 -3 l-73 -1 0 -161 c0
-154 1 -161 20 -166 13 -3 20 -12 18 -22 -3 -12 -16 -16 -48 -17 -25 -1 -59
-2 -77 -3 l-31 -1 0 -133 c0 -72 0 -138 -1 -144 -1 -14 -31 -18 -31 -5 -1 4
-1 55 -1 115 -1 92 -3 107 -18 108 -9 0 -35 2 -58 4 -24 2 -44 0 -46 -3 -2 -4
2 -54 8 -112 7 -58 10 -108 8 -113 -2 -4 -15 -4 -29 -1 -32 8 -70 -18 -77 -53
-6 -32 7 -53 33 -53 10 0 25 -11 34 -25 15 -23 15 -27 0 -49 -8 -14 -21 -23
-28 -20 -19 7 -47 -30 -42 -57 3 -13 5 -27 5 -30 2 -11 52 -29 83 -29 29 0 30
-1 15 -18 -18 -20 -23 -37 -8 -27 23 14 19 -18 -8 -63 -30 -48 -30 -48 -13
-85 17 -36 17 -36 80 -37 64 0 80 13 47 40 -8 7 -12 16 -9 21 9 16 24 10 24
-10 0 -10 6 -21 14 -24 9 -4 14 -17 13 -34 -4 -42 18 -52 106 -53 57 0 78 -3
75 -12 -7 -20 -56 -28 -72 -12 -9 8 -17 10 -21 5 -11 -19 -68 -42 -79 -31 -7
7 -4 10 8 10 15 0 16 3 6 15 -15 18 -20 18 -45 -1 -17 -12 -17 -16 -6 -24 12
-7 12 -12 3 -23 -7 -7 -9 -17 -5 -20 3 -4 1 -7 -6 -7 -7 0 -9 9 -5 25 7 27 -4
33 -24 13 -9 -9 -12 -9 -12 2 0 11 -3 11 -12 2 -18 -18 -28 -14 -25 9 3 29
-15 34 -31 8 -10 -16 -10 -24 -1 -35 6 -8 10 -14 8 -15 -32 -6 -39 -6 -39 4 0
6 -10 21 -22 34 -20 22 -15 30 16 24 14 -3 24 19 19 40 -3 10 -10 19 -17 19
-6 0 -17 4 -25 9 -12 8 -12 12 -2 25 14 17 7 51 -8 42 -10 -6 -2 36 8 44 4 3
15 18 25 34 13 20 15 31 7 39 -8 8 -11 6 -11 -7 0 -13 -5 -16 -22 -11 -16 6
-20 4 -15 -8 4 -10 -7 -20 -34 -33 -31 -15 -37 -23 -32 -39 3 -11 10 -21 14
-23 5 -2 9 -17 9 -32 0 -16 5 -32 10 -35 17 -10 11 -37 -9 -42 -23 -6 -17 -39
11 -54 20 -11 16 -29 -7 -29 -7 0 -16 11 -19 25 -4 17 -14 25 -29 26 -12 0
-16 3 -9 6 6 2 10 9 6 14 -3 5 1 9 9 9 8 0 20 6 27 14 9 12 6 22 -14 53 -14
21 -26 49 -27 63 0 23 -1 23 -9 5 -6 -13 -9 -15 -9 -5 0 18 23 50 36 50 6 0
13 9 16 19 8 32 -32 31 -80 -2 -45 -29 -54 -55 -27 -78 9 -7 14 -22 11 -36 -5
-25 25 -50 53 -44 11 2 12 0 4 -9 -18 -18 -48 -19 -61 -1 -9 13 -10 10 -6 -13
5 -23 3 -27 -8 -22 -8 4 0 -5 18 -21 31 -27 31 -29 13 -41 -25 -16 -57 -15
-64 1 -3 9 -8 7 -16 -5 -6 -9 -17 -15 -24 -12 -8 3 -16 -3 -19 -15 -3 -12 -1
-21 4 -21 5 0 9 -7 9 -15 0 -7 6 -18 13 -22 15 -10 37 -49 37 -65 0 -7 -12
-21 -25 -31 -20 -14 -24 -15 -19 -2 3 8 10 15 15 15 14 0 11 23 -7 58 -22 45
-34 40 -34 -14 0 -27 -4 -43 -10 -39 -5 3 -10 17 -10 31 0 30 -14 31 -35 2
-13 -19 -18 -21 -35 -10 -11 6 -27 12 -36 12 -12 0 -15 7 -11 27 4 21 -3 34
-41 70 -44 41 -72 54 -72 33 0 -5 17 -23 38 -40 35 -28 39 -35 41 -85 1 -33
-2 -55 -8 -55 -6 0 -11 20 -11 45 0 28 -5 45 -12 45 -6 0 -9 3 -5 6 6 7 -16
34 -28 34 -17 0 -94 62 -100 80 -3 11 -10 20 -15 20 -5 0 2 -25 16 -56 28 -63
15 -64 -17 -1 -12 23 -28 49 -36 58 -12 14 -12 17 2 23 9 3 25 1 36 -4 15 -8
19 -7 19 5 0 8 6 15 14 15 32 0 25 23 -19 65 -25 25 -43 49 -40 55 3 5 -4 17
-15 28 -12 11 -18 26 -15 34 8 21 -8 30 -36 20 -15 -6 -23 -18 -25 -40 -3 -26
2 -35 34 -59 60 -44 92 -76 92 -92 0 -10 -10 -6 -32 15 -30 28 -112 84 -122
84 -2 0 -3 -6 -2 -13 2 -16 65 -77 79 -77 6 0 7 -3 4 -6 -4 -4 -17 0 -31 9
-31 21 -80 17 -84 -6 -2 -12 4 -20 17 -24 11 -3 18 -10 14 -16 -4 -6 -1 -7 6
-3 7 5 10 14 7 22 -3 8 -1 14 4 14 6 0 10 -6 10 -14 0 -28 51 -115 71 -121 22
-7 21 -26 -1 -33 -7 -3 -10 0 -7 5 3 5 -7 17 -23 26 -16 10 -32 27 -35 38 -4
12 -30 43 -58 70 -28 27 -48 49 -43 49 5 0 2 8 -5 17 -13 16 -12 16 14 0 25
-16 28 -16 33 -2 4 10 13 14 23 10 11 -4 13 -3 5 5 -6 6 -19 12 -30 14 -27 5
-94 46 -94 57 0 5 -6 9 -14 9 -7 0 -16 9 -19 20 -3 12 -14 20 -26 20 -24 0
-27 -10 -9 -28 10 -10 10 -15 -2 -22 -8 -5 -19 -10 -25 -10 -5 0 -3 5 5 10 13
9 13 10 0 10 -20 0 -73 68 -66 85 3 9 0 12 -9 8 -9 -3 -12 -11 -7 -21 4 -10 7
-33 7 -52 0 -28 -4 -35 -20 -35 -11 0 -24 9 -29 21 -7 15 -18 21 -38 20 -36
-1 -36 -23 0 -37 16 -7 22 -13 14 -16 -18 -7 -82 6 -82 17 0 4 -10 6 -22 3
-16 -3 -19 -2 -10 5 10 7 7 13 -12 25 -33 22 -39 21 -33 -2 3 -14 1 -18 -9
-14 -7 3 -12 14 -11 25 1 12 -4 23 -12 26 -10 3 -13 -3 -9 -26 2 -18 0 -34 -6
-36 -7 -3 -5 -9 4 -15 19 -13 9 -14 -23 -2 -19 8 -27 6 -31 -5 -3 -8 -1 -14 4
-14 6 0 10 -4 10 -10 0 -5 -11 -10 -25 -10 -23 0 -24 2 -15 21 7 11 9 23 7 26
-3 2 -32 1 -64 -4 -32 -4 -117 -7 -190 -5 -104 2 -132 6 -137 17 -5 13 24 15
204 15 l210 0 -2 23 -2 22 -178 -3 c-148 -3 -181 -1 -193 12 -23 22 -18 28 23
26 20 -1 114 -2 208 -1 185 1 178 -1 242 63 32 33 36 54 13 77 -12 12 -21 28
-21 36 0 8 -9 15 -20 15 -13 0 -18 -5 -14 -15 3 -8 -10 -33 -30 -59 -25 -30
-33 -45 -24 -48 7 -3 18 2 23 9 8 11 11 9 13 -10 l2 -24 -135 0 c-74 0 -133 3
-131 6 3 3 -29 5 -70 3 -56 -3 -74 0 -72 9 2 10 -327 13 -1664 16 -1084 2
-1668 0 -1668 -6 0 -14 39 -49 71 -63 15 -7 33 -24 39 -37 9 -21 13 -22 21
-10 8 10 9 8 4 -8 -5 -16 2 -33 25 -62 18 -22 30 -43 27 -48 -3 -4 21 -24 54
-43 32 -19 59 -39 59 -44 0 -5 29 -36 65 -69 35 -33 62 -64 58 -70 -3 -6 -1
-7 5 -3 6 3 13 2 16 -3 3 -5 21 -11 39 -15 18 -3 66 -29 107 -57 86 -59 215
-123 280 -139 51 -14 91 -33 112 -54 13 -13 129 -43 193 -50 46 -5 88 -17 105
-31 8 -7 24 -15 35 -18 11 -2 9 -3 -5 -2 -14 2 -60 13 -104 25 -56 15 -86 19
-105 12 -37 -13 -57 -4 -34 15 16 13 14 14 -22 8 -29 -4 -36 -3 -25 4 13 9 13
11 0 11 -9 0 -20 -4 -26 -10 -6 -6 -18 -2 -34 13 -21 19 -113 54 -130 50 -3
-1 -19 9 -37 23 -17 13 -41 24 -52 24 -11 0 -27 7 -35 16 -9 9 -22 17 -29 18
-22 4 -62 28 -94 58 -18 18 -36 27 -43 23 -7 -4 -16 -1 -21 6 -6 9 -9 10 -9 2
0 -6 14 -26 31 -43 l32 -31 -29 7 c-16 4 -31 10 -34 14 -3 4 -16 10 -30 14
l-25 7 28 -25 c34 -31 29 -32 -23 -6 -42 22 -110 27 -110 9 0 -8 -16 -9 -52
-4 -52 7 -110 13 -136 14 -7 1 -11 5 -8 10 3 5 -6 11 -19 14 -14 2 -28 0 -31
-4 -3 -5 3 -9 13 -9 15 0 16 -2 3 -10 -9 -6 -18 -6 -24 0 -6 6 -24 10 -41 11
-29 1 -29 1 9 12 83 25 41 47 -94 49 -56 1 -68 4 -89 26 -13 15 -25 35 -26 47
-4 35 -5 36 -15 30 -5 -3 -10 -2 -10 3 0 6 7 12 15 16 8 3 15 18 15 32 0 15 7
36 16 46 16 16 15 19 -7 37 -13 11 -27 20 -31 21 -5 0 -8 6 -8 13 0 9 31 11
130 9 l130 -2 6 25 c4 14 4 28 1 31 -3 4 -1 17 4 31 8 22 6 26 -21 36 -16 6
-30 18 -30 27 0 12 -2 12 -9 1 -9 -14 -51 -7 -51 10 0 6 10 5 23 -2 20 -11 21
-11 8 5 -8 9 -19 15 -25 13 -6 -3 -19 3 -30 12 -18 15 -18 15 -11 -9 4 -14 13
-28 19 -32 7 -5 7 -8 -2 -8 -8 0 -16 9 -19 21 -5 16 -11 19 -31 14 -14 -3 -32
-14 -39 -23 -10 -14 -12 -14 -13 -2 0 14 -76 91 -83 84 -2 -2 -18 0 -35 6 -18
5 -30 5 -27 0 3 -4 -1 -11 -7 -14 -7 -3 -1 -4 14 -1 29 6 58 -2 58 -16 0 -14
-74 -11 -89 4 -11 10 -13 10 -7 0 5 -10 -3 -13 -31 -12 -21 0 -31 3 -23 6 8 4
21 13 30 21 13 14 12 15 -10 8 -14 -4 -34 -8 -44 -9 -13 -1 -23 -14 -30 -40
-6 -22 -14 -36 -18 -31 -4 4 -15 1 -24 -7 -14 -11 -18 -10 -27 6 -12 20 -13
26 -16 46 0 6 -8 9 -16 5 -8 -3 -15 -1 -15 4 0 6 -6 10 -13 10 -8 0 -20 -19
-27 -42 l-14 -43 -9 43 c-12 53 -27 55 -20 2 5 -32 3 -40 -11 -40 -11 0 -18
12 -22 40 -7 43 -19 49 -50 25 -10 -8 -22 -15 -26 -15 -15 0 -8 29 10 39 22
13 11 14 -22 1 -17 -6 -26 -17 -27 -32 0 -13 -3 -18 -5 -11 -3 7 -12 9 -20 6
-8 -3 -14 1 -14 11 0 9 -8 16 -20 16 -16 0 -20 -7 -21 -32 0 -18 -3 -26 -6
-18 -2 8 -7 22 -10 30 -8 19 -10 27 -12 43 -1 7 -7 4 -16 -7 -22 -29 -19 -89
5 -111 11 -10 20 -21 20 -24 0 -4 -15 -23 -34 -43 -37 -39 -36 -45 19 -83 19
-13 19 -14 -8 -41 -16 -15 -36 -41 -45 -56 -19 -32 -27 -35 -36 -12 -4 10 6
31 25 55 29 37 30 41 15 58 -9 10 -13 21 -9 25 4 4 0 4 -9 1 -30 -12 -30 16 1
47 34 35 39 59 16 78 -9 8 -15 30 -15 57 0 47 -25 89 -36 60 -10 -27 0 -122
14 -119 24 4 12 -43 -18 -67 -38 -30 -38 -44 2 -75 l32 -25 -37 -36 c-20 -20
-37 -40 -37 -45 0 -6 -4 -10 -10 -10 -5 0 -10 7 -10 15 0 8 -9 15 -19 15 -32
0 -32 15 -2 38 27 20 30 31 23 90 -1 6 -12 12 -25 12 -13 0 -26 3 -30 6 -3 4
-54 6 -113 5 -58 -1 -104 1 -101 6 3 4 -6 9 -20 10 -19 1 -22 -1 -12 -8 9 -5
10 -9 2 -9 -6 0 -20 -3 -30 -6 -12 -4 -14 -3 -6 3 8 6 -36 7 -110 5 -67 -2
-119 -1 -115 3 11 11 -23 34 -50 35 -13 0 -33 -6 -45 -12 -20 -12 -18 -13 28
-19 41 -5 35 -6 -35 -7 -56 0 -78 2 -65 8 11 5 14 9 7 9 -7 1 -23 -6 -35 -14
-18 -12 -93 -14 -464 -13 -399 1 -445 -1 -478 -16 -32 -16 -39 -16 -53 -3 -37
31 -116 30 -110 -2 3 -12 15 -16 47 -16 24 0 46 -4 47 -10 4 -14 -65 -57 -79
-49 -8 5 -8 2 1 -7 18 -19 15 -39 -5 -36 -28 4 -76 54 -69 72 3 8 10 15 15 15
6 0 18 16 27 35 16 34 16 37 -2 56 -11 12 -26 18 -37 15 -14 -3 -16 -2 -7 9
15 18 5 21 -67 24 -54 1 -63 -1 -63 -16 -1 -17 -1 -17 -14 -1 -7 10 -32 20
-56 23 -39 5 -42 4 -37 -16 4 -15 2 -19 -9 -15 -8 3 -21 9 -29 12 -8 3 -15 1
-15 -5 0 -16 -36 -13 -54 4 -8 8 -19 15 -25 15 -6 0 -11 5 -11 11 0 5 5 7 12
3 7 -4 8 -3 4 4 -4 6 1 23 10 37 9 14 14 29 10 33 -4 3 -11 0 -15 -7 -7 -10
-10 -9 -16 8 -7 23 -21 28 -28 9 -4 -10 -8 -10 -15 1 -6 9 -12 10 -16 2 -4 -6
4 -13 19 -17 26 -6 29 -12 19 -38 -10 -26 -34 -19 -34 9 0 22 -3 25 -24 19
-27 -6 -44 12 -27 29 8 8 11 8 11 -1 0 -7 5 -12 11 -12 5 0 9 10 7 22 -3 20 2
23 32 24 19 0 57 -3 83 -9 44 -8 54 -6 113 22 36 17 71 31 79 31 7 0 27 -12
44 -26 27 -23 36 -24 78 -18 26 4 55 7 64 6 8 -2 24 7 34 18 15 16 30 20 82
20 35 0 80 -7 100 -15 55 -23 117 -20 147 9 15 13 26 26 26 30 0 4 -226 6
-502 4 -390 -2 -502 -6 -506 -15 -2 -7 -18 -13 -35 -14 -18 0 -26 -3 -19 -6
14 -5 17 -33 3 -33 -5 0 -22 7 -37 15 -20 10 -23 15 -11 15 9 0 17 5 17 10 0
6 14 10 32 10 43 0 30 10 -18 14 -29 2 -43 -2 -56 -18 -17 -20 -19 -20 -22 7
-1 15 -175 21 -192 6 -7 -5 -23 -7 -36 -4 -14 4 -57 7 -96 8 -58 2 -71 -1 -67
-12 5 -12 3 -12 -11 0 -14 12 -157 14 -863 16 -465 1 -1028 5 -1251 8 -223 4
-441 7 -485 8 -44 0 -83 5 -87 11 -4 6 -12 5 -22 -3 -11 -9 -16 -10 -16 -2 0
6 6 12 13 12 41 4 208 6 655 7 l502 2 0 55 0 55 -90 0 -90 0 -1 28 -1 27 -7
-25 c-7 -24 -10 -25 -104 -28 l-97 -3 0 61 0 60 -75 0 -75 0 0 123 0 123 75 1
75 1 0 -93 c0 -66 4 -95 13 -98 9 -3 9 -8 -2 -21 -13 -15 -13 -19 0 -26 12 -8
14 10 17 116 l3 125 77 -3 77 -3 3 -142 c1 -81 7 -143 12 -143 5 0 11 62 12
143 l3 142 86 5 85 5 3 -30 c1 -16 6 -55 10 -85 8 -54 9 -54 10 31 l1 86 28
-3 c27 -4 27 -4 2 5 -14 5 -63 7 -110 5 -62 -2 -73 -1 -40 5 43 7 -175 9
-1053 10 l-387 1 4 270 4 270 -944 0 -944 0 0 -347 c0 -192 0 -365 0 -385 l0
-38 -65 0 -65 0 0 110 0 109 -87 3 -88 3 -2 35 c-1 19 -3 141 -4 270 -2 209
-3 223 -10 125 -4 -60 -5 -113 -2 -119 3 -5 1 -6 -6 -2 -8 6 -10 1 -6 -17 4
-14 2 -28 -4 -31 -7 -4 -9 -31 -6 -69 4 -43 2 -56 -4 -42 -8 16 -10 11 -10
-25 0 -34 3 -40 9 -25 7 16 9 13 9 -17 1 -29 -2 -36 -14 -32 -13 5 -21 57 -16
101 1 6 -3 14 -9 18 -13 8 -13 -65 -1 -98 6 -14 19 -28 30 -32 12 -3 21 -13
21 -21 0 -11 -15 -14 -60 -14 l-60 0 0 93 c-1 1065 0 1801 4 1804 2 2 8 -44
12 -104 4 -59 9 -111 10 -115 1 -5 2 -137 3 -295 0 -157 3 -284 6 -282 2 3 7
95 10 204 6 194 14 268 16 149 1 -59 1 -59 10 -19 5 22 13 60 18 85 5 25 9 38
10 30 5 -41 22 45 26 128 7 168 15 110 15 -110 0 -118 3 -217 6 -220 3 -3 5
-118 5 -255 1 -142 4 -237 9 -223 l8 25 1 -25 c1 -14 4 -20 9 -14 11 18 52 36
67 30 8 -3 16 3 18 12 3 9 6 -5 7 -33 l2 -50 13 45 c12 41 13 42 14 15 l2 -30
13 30 13 30 6 -49 c4 -27 7 -68 7 -92 0 -24 4 -44 9 -44 6 0 12 -21 14 -47 2
-27 3 103 3 287 l-1 335 -30 2 c-16 0 -38 2 -47 2 -9 1 -18 11 -20 24 -3 23
-48 39 -48 16 0 -9 -3 -9 -15 1 -8 6 -18 9 -23 7 -9 -7 -39 10 -31 17 2 3 58
6 124 7 l120 2 3 -43 3 -42 49 4 c43 4 49 2 54 -16 3 -12 6 -174 6 -361 l0
-340 45 3 c34 3 44 8 43 20 -1 10 0 536 0 1170 l2 1152 45 0 44 0 3 128 3 127
29 3 28 4 -4 74 -3 74 167 -4 c149 -4 169 -2 178 12 5 10 10 12 10 5 0 -7 6
-13 13 -13 9 0 11 -21 9 -80 -3 -62 -7 -80 -18 -80 -11 0 -13 7 -7 28 8 29 9
89 2 96 -4 4 -209 9 -302 7 l-39 -1 2 -52 c3 -74 3 -76 -23 -80 -21 -3 -22 -6
-22 -123 0 -68 -4 -123 -10 -127 -5 -4 -29 -8 -52 -8 l-43 0 0 -125 0 -124
135 2 c74 1 134 -2 132 -7 -1 -4 -61 -9 -132 -10 l-130 -1 -3 -1037 -2 -1038
189 0 188 0 5 883 c3 692 7 887 17 906 7 13 9 21 4 18 -4 -3 -7 20 -7 51 1 32
2 153 3 270 0 116 5 212 9 212 4 0 8 -91 7 -201 0 -200 0 -202 23 -212 27 -13
28 -27 2 -34 -20 -5 -20 -14 -20 -486 0 -264 3 -477 6 -474 4 4 10 75 14 159
7 151 7 152 10 53 l4 -100 6 70 c6 67 7 66 10 -45 2 -63 5 -94 7 -67 2 26 8
45 14 42 5 -4 9 3 9 14 0 10 -5 21 -11 23 -7 2 -7 13 1 33 8 19 13 106 14 240
0 119 4 188 8 160 3 -27 7 -169 7 -315 1 -175 5 -260 11 -250 5 8 10 92 11
185 1 94 4 160 6 148 2 -13 9 -23 14 -23 5 0 9 -72 9 -172 0 -94 2 -169 5
-166 3 3 8 65 11 138 9 208 21 253 23 83 1 -88 5 -143 11 -143 14 0 18 1329 4
1351 -4 7 -1 10 7 7 22 -7 28 -251 36 -1361 l8 -988 174 0 c95 0 175 2 177 3
2 2 4 325 4 718 1 393 5 765 10 825 20 226 51 541 57 575 4 19 6 39 5 43 -1 5
2 36 7 70 6 34 15 100 21 147 26 188 73 448 92 497 l19 53 115 -2 114 -3 17
-52 c9 -29 21 -53 27 -53 6 0 12 21 14 47 1 26 8 51 15 55 6 4 69 8 140 8
l127 0 11 -27 c24 -65 64 -303 105 -628 9 -71 20 -161 25 -200 5 -38 20 -176
34 -305 14 -129 27 -255 30 -280 3 -25 7 -67 10 -95 3 -27 7 -236 9 -463 3
-228 7 -416 10 -420 3 -3 7 12 7 34 1 38 2 38 9 9 7 -28 8 -27 10 15 1 25 6
59 10 75 7 26 8 24 9 -19 1 -58 8 -56 20 5 9 43 9 43 10 9 1 -23 4 -30 10 -22
6 10 34 12 117 8 60 -2 98 -1 84 3 -20 5 -22 9 -10 16 12 7 10 10 -10 15 -30
7 -39 44 -16 69 10 11 16 43 18 101 2 68 6 85 18 85 13 0 15 -21 15 -128 0
-122 1 -127 20 -125 20 3 20 -4 25 -357 3 -198 8 -344 11 -325 5 33 6 32 7
-12 1 -27 6 -48 11 -48 14 0 28 195 32 435 1 71 4 90 9 65 4 -19 8 -29 9 -22
2 23 21 2 21 -24 0 -30 20 -32 21 -1 l2 22 4 -22 c4 -19 11 -23 44 -23 22 0
49 -4 59 -10 15 -8 20 -5 29 20 10 31 26 39 34 18 3 -7 6 1 8 17 2 27 3 26 9
-10 7 -37 7 -35 9 23 0 39 5 61 11 57 6 -4 10 -104 11 -263 1 -144 5 -246 9
-232 4 14 9 18 10 10 1 -8 6 -3 12 12 9 27 11 27 38 13 16 -8 31 -24 35 -35
16 -51 25 -11 24 108 0 70 1 204 4 297 3 94 7 387 9 652 2 264 6 476 10 470 4
-7 8 -245 8 -530 0 -457 2 -518 15 -524 9 -3 19 -2 23 2 4 3 9 140 12 303 l5
297 8 -304 c4 -167 7 -355 7 -418 0 -93 3 -113 15 -113 21 0 26 32 23 130 -2
61 -6 84 -16 82 -6 -1 -12 2 -12 8 0 5 7 10 15 10 13 0 15 38 17 278 l2 277 7
-290 c3 -159 7 -336 8 -392 1 -84 4 -103 16 -103 12 0 15 19 15 111 0 71 -4
108 -10 104 -5 -3 -10 1 -10 10 0 9 4 14 9 11 12 -8 20 101 23 289 2 157 3
156 8 -64 5 -203 7 -224 23 -227 16 -2 17 12 19 169 1 95 2 187 1 206 0 23 2
29 8 19 4 -8 9 -147 9 -309 1 -286 2 -294 22 -310 l21 -17 -21 -11 c-19 -10
-20 -17 -15 -113 3 -57 7 -105 9 -107 2 -2 5 31 6 75 l2 79 6 -100 6 -100 3
133 c2 118 3 336 2 362 -1 5 -8 7 -16 4 -9 -4 -15 0 -15 10 0 9 6 13 14 10 22
-9 28 39 26 236 -3 346 2 667 11 620 7 -44 10 -244 9 -637 -1 -190 0 -202 18
-212 28 -15 32 6 32 197 0 99 4 162 10 162 6 0 11 -73 12 -185 3 -161 5 -183
18 -175 12 8 15 45 17 217 3 277 2 267 8 261 3 -3 7 -110 9 -237 2 -128 6
-235 9 -238 4 -3 13 -3 22 0 13 5 15 34 17 184 1 138 3 162 8 108 4 -38 8
-120 9 -182 1 -106 9 -140 28 -111 4 7 8 104 10 216 1 111 5 202 8 202 4 0 9
-96 12 -212 2 -117 6 -214 7 -216 2 -2 11 4 19 13 13 13 16 47 15 218 0 111 2
201 6 200 4 -2 9 -92 10 -200 4 -237 3 -223 21 -223 13 0 15 27 16 178 1 97 4
218 8 267 9 102 8 116 17 -225 3 -107 7 -201 9 -207 2 -7 11 -13 20 -13 13 0
15 22 17 143 2 216 5 284 11 294 3 5 2 27 -3 48 -5 22 -6 44 -2 50 4 5 7 175
7 377 0 203 4 368 8 368 4 0 7 -51 6 -112 -7 -395 18 -2197 29 -2088 2 19 8
41 14 48 6 7 11 39 12 72 1 32 4 62 7 65 7 6 7 5 15 -120 4 -62 12 -104 20
-113 8 -7 14 -26 14 -42 0 -28 -1 -28 -63 -32 -77 -5 -89 3 -81 53 l7 39 -127
0 -126 0 0 -292 0 -293 377 3 c329 2 562 2 723 0 49 -1 52 5 23 49 -10 14 -19
21 -21 14 -2 -6 -8 -11 -13 -11 -6 0 -7 5 -3 12 5 7 3 8 -6 3 -7 -4 -15 -2
-19 4 -5 8 -15 6 -33 -9 -29 -23 -38 -25 -38 -9 0 5 -11 27 -25 47 -14 20 -25
41 -25 46 0 10 47 -49 53 -68 3 -7 14 -2 29 11 17 17 27 20 35 12 6 -6 21 -8
34 -4 23 8 23 8 4 15 -15 6 -10 9 26 15 43 6 46 9 58 51 11 37 17 44 32 39 15
-5 20 0 25 24 4 17 13 31 21 31 8 0 12 4 8 9 -7 13 11 23 70 37 40 10 44 12
20 13 -70 2 -103 13 -109 35 -5 19 -12 21 -70 22 -64 0 -66 0 -76 -29 -5 -17
-10 -60 -10 -97 l0 -66 -55 0 -55 1 0 123 c0 116 -1 122 -20 122 -20 0 -21 4
-18 174 3 151 1 173 -12 168 -12 -4 -13 -2 -2 9 8 8 12 46 12 111 0 90 -2 98
-19 98 -16 0 -20 8 -23 43 l-3 42 -67 2 -68 1 0 -38 c0 -42 -10 -54 -38 -46
-15 5 -18 19 -19 91 -1 73 1 85 15 86 9 0 12 3 6 5 -7 3 -9 15 -6 27 6 22 6
22 13 -3 4 -14 7 -42 8 -63 1 -35 3 -37 21 -27 11 6 39 10 63 9 23 -1 56 0 72
3 17 3 24 3 18 1 -15 -5 -17 -39 -4 -48 5 -3 17 2 26 12 16 16 17 14 10 -35
-4 -30 -3 -52 2 -52 10 0 43 69 43 88 0 18 9 14 34 -15 20 -24 26 -25 40 -14
12 10 19 11 30 2 11 -10 17 -8 25 6 8 14 11 1 12 -57 2 -63 3 -68 8 -30 4 36
7 24 11 -55 6 -91 6 -86 8 65 1 91 5 195 8 231 l7 67 -49 4 c-27 3 -57 1 -66
-4 -13 -6 -20 -3 -28 12 -15 27 -4 41 28 39 80 -6 107 1 130 34 l23 32 -1 -60
c-1 -33 -1 -184 1 -335 l2 -275 13 130 c18 185 17 184 66 180 22 -1 44 -9 49
-16 7 -11 9 -9 10 6 l0 20 9 -20 c7 -17 9 -17 9 -2 1 9 6 17 11 17 6 0 10 -30
11 -67 1 -50 3 -61 9 -43 5 16 9 -25 11 -110 l2 -135 7 135 c4 74 9 234 10
355 2 121 6 211 11 200 6 -16 8 -12 14 21 9 54 22 74 34 56 11 -18 22 -17 33
2 11 20 29 21 22 1 -4 -8 -2 -15 2 -15 14 0 31 14 36 30 3 11 10 7 23 -14 18
-27 18 -30 3 -57 -11 -18 -13 -29 -6 -31 15 -5 19 -159 6 -175 -7 -9 -7 -17
-1 -25 6 -8 9 -148 8 -348 -1 -217 3 -341 9 -353 8 -12 7 -23 -2 -38 -7 -11
-11 -28 -8 -37 5 -15 21 -17 123 -15 l118 2 3 26 3 25 -111 0 c-101 0 -111 2
-108 18 3 15 16 17 110 17 l106 -1 6 151 c12 275 13 282 25 250 4 -11 8 -105
10 -210 3 -189 9 -218 38 -193 8 6 77 9 191 6 l179 -3 6 140 c4 77 9 151 13
163 14 48 22 -3 23 -146 1 -80 4 -148 7 -151 3 -3 50 -4 105 -2 67 2 105 -1
114 -9 28 -23 3 -30 -105 -30 -95 0 -109 2 -113 18 -3 9 -5 -2 -6 -25 0 -24 2
-43 7 -43 4 -1 63 -1 132 -2 l125 -1 -3 24 c-2 13 -3 34 -2 47 0 29 1 76 0
105 0 12 0 330 0 707 0 779 8 947 26 550 6 -140 7 -265 3 -277 -7 -19 -5 -23
10 -23 15 0 20 12 26 73 7 59 9 67 15 42 9 -35 14 -13 11 45 -1 29 0 32 9 17
6 -9 15 -15 21 -12 5 4 9 -5 9 -19 0 -16 6 -26 15 -26 8 0 15 5 15 10 0 6 18
10 40 10 30 0 40 4 40 16 0 8 5 12 10 9 6 -3 10 -16 10 -28 0 -18 2 -19 10 -7
7 11 10 -6 11 -55 l2 -70 7 50 c5 28 9 200 9 383 1 315 2 332 19 332 18 0 19
-22 25 -427 4 -236 8 -504 8 -598 1 -106 5 -153 9 -125 l7 45 1 -44 c1 -24 4
-42 6 -40 5 5 19 134 18 160 0 9 5 16 12 16 9 0 17 -28 23 -84 6 -46 13 -87
17 -90 3 -3 14 0 23 8 18 15 74 17 106 4 10 -4 21 -5 24 -1 9 8 32 -26 33 -47
0 -10 4 -16 9 -13 4 3 11 79 15 168 4 89 9 164 11 167 2 2 10 -3 18 -10 8 -8
24 -21 36 -29 12 -8 21 -26 21 -40 1 -24 2 -23 19 9 15 28 19 31 23 15 6 -23
62 -31 84 -13 11 9 14 9 14 0 0 -7 4 -10 9 -6 5 3 13 0 17 -6 4 -8 11 -3 20
12 14 27 20 19 27 -36 3 -24 5 -20 7 15 l3 45 6 -45 c5 -32 9 3 14 115 9 189
15 235 27 215 5 -8 12 -32 15 -53 7 -37 7 -38 27 -21 16 16 21 16 28 4 6 -8
10 -19 11 -25 2 -20 27 131 30 180 2 28 6 -15 9 -95 l5 -145 368 -3 367 -2 0
315 c0 203 4 315 10 315 6 0 11 -28 11 -62 1 -35 2 -79 3 -98 1 -19 3 -105 5
-190 l4 -155 8 130 c16 239 21 296 25 292 8 -8 12 -272 14 -972 2 -379 6 -674
10 -655 l7 35 3 -30 c2 -28 3 -27 10 10 4 22 10 344 14 715 10 1069 9 1023 16
945 6 -69 7 -68 8 34 1 57 4 102 6 100 6 -6 14 -685 17 -1324 1 -465 2 -495
16 -435 8 36 17 84 20 107 5 42 23 51 23 12 0 -20 24 -26 35 -8 4 5 12 8 18 6
7 -2 20 0 29 4 11 6 22 4 32 -6 8 -8 20 -15 26 -15 6 0 8 -4 5 -10 -3 -6 -2
-10 3 -10 6 0 13 7 16 16 3 8 2 12 -4 9 -6 -3 -10 1 -10 10 0 13 4 14 23 4 19
-11 20 -10 9 3 -13 17 -13 70 1 61 5 -3 5 16 2 41 -5 31 -4 46 4 46 6 0 11 11
11 25 0 14 -4 25 -10 25 -5 0 -10 9 -10 20 0 11 5 20 10 20 6 0 10 11 10 24 0
14 -4 28 -10 31 -5 3 -10 12 -10 18 0 7 5 4 11 -5 5 -10 17 -18 24 -18 9 0 15
-10 15 -25 0 -16 -6 -25 -15 -25 -8 0 -15 -9 -15 -20 0 -11 7 -20 15 -20 9 0
15 -9 15 -25 0 -16 -6 -25 -15 -25 -22 0 -18 -37 5 -43 17 -4 20 0 20 25 0 17
4 27 10 23 16 -10 12 -65 -5 -65 -8 0 -15 -9 -15 -20 0 -11 -7 -20 -15 -20 -8
0 -15 -9 -15 -20 0 -37 33 -19 46 25 7 27 9 25 14 -30 4 -33 7 -54 8 -46 1 8
5 11 9 8 3 -4 11 -3 17 3 8 6 12 1 14 -18 3 -37 19 -49 17 -13 -1 17 2 28 6
25 4 -2 10 0 14 6 3 5 -1 10 -9 10 -20 0 -20 4 0 45 12 26 13 38 4 54 -8 16
-8 27 1 42 6 12 8 38 6 58 -3 20 -3 28 -1 19 3 -10 14 -18 25 -18 14 0 19 -7
19 -25 0 -15 6 -25 14 -25 11 0 14 -14 13 -52 -1 -71 11 -134 29 -149 11 -9
14 -8 14 5 0 9 -6 16 -12 17 -10 0 -10 2 0 6 6 2 12 10 12 18 0 9 20 12 82 11
l81 -2 19 -35 c10 -18 18 -29 19 -24 1 6 4 -1 8 -15 11 -36 23 173 22 377 -1
92 -1 176 0 186 0 19 14 23 24 7 3 -5 16 -10 28 -11 20 -1 20 -2 -3 -9 -16 -5
8 -8 73 -9 l97 -1 1 33 c4 87 7 107 27 172 11 38 18 72 15 75 -2 3 -24 5 -46
5 -23 1 -82 2 -130 3 l-88 2 3 250 c2 196 5 251 16 255 18 7 27 -24 13 -47
-13 -21 -7 -38 15 -38 8 0 14 -5 14 -12 0 -6 3 -8 7 -4 4 4 8 34 9 66 1 62
-14 83 -43 59 -18 -15 -38 3 -30 25 4 11 17 15 39 14 25 -2 33 1 36 16 6 28
-11 38 -42 26 -21 -8 -28 -7 -33 6 -9 23 13 40 31 24 19 -15 46 -6 46 16 0 14
-7 16 -41 11 -39 -5 -40 -4 -37 21 3 23 8 27 38 27 l34 0 2 58 c2 47 -1 59
-17 68 -13 6 -19 6 -19 -1 0 -5 -9 -10 -20 -10 -13 0 -20 7 -20 20 0 18 5 20
37 18 40 -3 52 13 33 42 -8 12 -13 13 -30 3 -28 -18 -40 -16 -40 7 0 22 16 25
53 11 l25 -10 -1 212 -2 212 -160 0 -160 0 0 -120 c0 -66 2 -128 4 -138 3 -15
14 -17 105 -14 112 4 146 -3 146 -31 0 -10 11 -25 25 -32 27 -14 18 -30 -18
-30 -13 0 -17 5 -12 19 12 40 -6 42 -389 39 -201 -2 -366 -5 -366 -8 0 -3 -34
-4 -75 -2 -52 3 -75 7 -75 16 0 10 50 12 220 12 140 -1 220 3 221 9 1 6 3 309
5 675 3 714 3 711 11 692 2 -6 9 -10 14 -6 14 8 10 -8 -6 -30 -13 -17 -13 -22
3 -39 12 -15 14 -21 5 -24 -15 -5 -17 -49 -3 -58 6 -4 5 -13 -3 -25 -9 -16 -9
-24 1 -41 11 -16 11 -24 1 -36 -10 -11 -10 -19 -1 -34 9 -14 9 -25 2 -39 -24
-45 -16 -50 79 -50 l88 0 -4 124 c-3 79 -1 131 6 143 8 13 10 -18 11 -124 l0
-143 244 0 c134 0 251 2 259 6 23 8 8 54 -21 65 -14 5 -32 7 -39 5 -10 -4 -11
-1 -3 14 5 10 22 20 37 22 27 3 28 6 27 55 0 28 2 50 5 48 3 -2 6 29 5 68 -1
40 2 92 6 117 4 25 8 -193 8 -485 0 -291 1 -743 1 -1002 l1 -473 238 0 237 0
-1 -122 c-2 -211 7 -348 22 -348 17 0 18 22 2 38 -9 9 -8 12 6 12 13 0 17 6
14 18 -6 20 22 27 33 9 4 -5 15 -4 29 3 17 9 24 9 30 1 5 -9 14 -9 35 1 23 10
29 10 33 0 3 -9 8 -10 17 -2 20 17 44 1 51 -36 3 -19 10 -34 14 -34 5 0 11
-15 13 -32 2 -18 5 62 5 178 2 173 5 214 17 224 10 8 47 11 112 10 54 -1 149
-2 211 -1 l114 1 -6 28 -6 27 269 -1 c148 -1 274 -5 280 -8 8 -5 11 46 11 173
l0 181 25 0 c20 0 25 -5 25 -25 0 -14 -7 -28 -15 -31 -20 -8 -19 -20 1 -28 11
-4 15 -2 11 8 -6 15 15 40 25 31 3 -3 8 3 11 14 3 12 0 18 -7 15 -6 -2 -17 5
-23 16 -11 17 -9 23 15 45 15 14 22 25 15 25 -6 0 -14 -6 -17 -12 -4 -7 -4 -3
-2 10 3 14 0 20 -6 15 -6 -3 -17 2 -25 12 -7 11 -13 15 -13 10 0 -5 7 -16 16
-26 20 -22 12 -49 -16 -49 -15 0 -20 7 -20 29 0 17 -5 33 -10 36 -6 4 -7 11
-4 17 4 6 6 54 5 109 0 54 3 100 7 103 15 9 37 -41 25 -56 -8 -9 -7 -17 3 -26
11 -10 14 -10 15 0 1 7 2 18 4 23 1 6 3 16 3 23 4 25 22 11 22 -16 0 -36 9
-45 26 -27 18 17 19 116 2 133 -9 9 -10 15 -2 20 6 4 14 16 17 26 4 10 9 17
11 15 3 -2 6 -129 7 -282 3 -311 8 -403 20 -372 6 17 8 17 8 3 1 -10 6 -18 11
-18 6 0 10 25 10 55 0 30 4 55 9 55 6 0 10 -8 10 -17 0 -10 6 -49 14 -88 l13
-70 7 85 c4 47 7 180 7 297 0 116 3 218 6 227 5 13 9 12 27 -5 14 -13 18 -22
11 -27 -8 -5 -9 -30 -4 -77 6 -57 7 -62 9 -25 1 33 4 41 11 30 7 -11 10 0 10
37 0 28 5 55 10 58 6 4 10 -25 10 -79 0 -54 4 -86 11 -88 9 -3 9 -14 -1 -42
-9 -27 -9 -40 -2 -45 7 -4 13 -49 15 -106 1 -55 4 8 6 140 2 132 6 421 10 642
l6 402 -60 6 c-33 3 -178 4 -322 2 -252 -4 -263 -4 -263 15 0 15 7 18 43 16
37 -3 42 0 45 20 3 19 9 22 38 20 19 -1 39 -8 45 -14 7 -9 58 -13 166 -13 85
-1 158 -2 162 -3 3 -1 23 6 43 15 48 22 47 22 58 -9 8 -19 15 -24 28 -19 9 3
22 7 27 8 7 1 12 -242 16 -703 9 -1005 11 -1189 17 -1155 5 30 5 30 12 5 5
-18 9 -2 14 55 7 71 9 77 20 54 10 -24 16 -26 68 -25 51 1 58 -1 59 -19 0 -18
1 -18 9 3 5 12 14 22 19 22 5 0 11 10 13 23 2 12 7 -30 11 -93 9 -142 29 -168
38 -52 9 104 12 409 5 421 -3 5 -4 15 -1 23 5 11 28 13 120 10 l115 -4 0 182
0 182 -115 -3 c-101 -4 -115 -2 -115 12 0 14 15 16 112 15 101 -1 113 1 116
17 3 17 -5 18 -95 16 -54 -1 -103 -6 -110 -11 -8 -6 -15 -3 -22 11 -14 26 -1
34 44 25 19 -3 41 -2 48 3 7 5 47 7 92 3 46 -4 85 -2 93 3 12 10 17 122 6 151
-5 13 -22 16 -79 16 -72 0 -74 -1 -79 -28 -4 -15 -4 -45 -1 -67 3 -25 1 -35
-4 -26 -7 11 -10 9 -14 -10 -3 -16 -5 -11 -6 16 -1 22 -4 82 -6 133 -4 92 -4
93 18 92 12 -1 37 -2 56 -1 l33 1 -2 88 c-2 48 -2 103 -2 122 l2 35 113 0 112
0 5 -765 c3 -421 8 -743 13 -716 4 27 7 62 7 77 0 16 5 29 10 29 6 0 10 9 10
21 0 11 4 18 9 14 5 -3 11 5 13 17 3 15 9 1 16 -37 7 -33 17 -76 21 -95 8 -31
18 652 12 748 -2 17 2 32 8 32 126 6 476 -1 483 -8 7 -7 7 -21 2 -39 -5 -15
-7 -235 -4 -488 3 -253 7 -408 8 -345 2 79 5 110 12 100 7 -11 10 1 10 42 0
31 4 59 9 62 12 8 22 -20 15 -39 -4 -10 0 -15 15 -15 12 0 21 6 22 13 0 6 1
68 2 137 l2 125 211 3 212 2 6 -25 c4 -14 4 -30 2 -34 -7 -11 -9 -296 -2 -350
11 -92 15 -47 15 174 0 130 4 232 10 238 26 26 31 -11 33 -261 1 -141 3 -227
5 -189 2 37 8 67 12 67 5 0 11 29 13 64 3 35 11 72 17 82 10 15 11 0 8 -73 -2
-53 1 -88 5 -80 6 7 8 -3 7 -28 -5 -150 8 -102 22 82 12 162 20 197 37 178 6
-6 6 -58 1 -130 -4 -66 -13 -192 -19 -280 -6 -88 -13 -170 -16 -182 -7 -36 10
-27 35 17 23 42 40 180 22 180 -13 0 10 58 26 64 9 4 13 -4 12 -27 0 -27 -2
-29 -9 -12 -8 19 -9 19 -9 -2 -1 -13 3 -23 8 -23 6 0 5 -15 -1 -36 -16 -59 5
-59 41 1 18 30 35 55 37 55 10 0 1 -21 -35 -81 -29 -49 -40 -79 -44 -126 -4
-35 -3 -63 1 -63 13 0 72 108 72 133 0 13 7 41 15 60 8 20 15 50 15 66 0 17
14 52 30 78 l30 47 0 -63 c0 -57 -4 -69 -40 -124 -22 -33 -39 -61 -38 -63 7
-6 37 24 55 54 l20 32 10 -44 c5 -25 7 -50 2 -57 -4 -7 -2 -17 4 -24 8 -8 16
-1 32 29 28 52 42 56 37 9 -4 -34 -3 -36 12 -21 11 11 16 34 16 70 0 29 6 65
14 80 11 20 11 29 3 37 -15 12 -14 138 1 153 14 14 23 -53 21 -147 -2 -89 3
-203 9 -186 4 11 6 11 14 0 6 -9 7 -3 3 19 -4 17 -4 32 -1 32 10 0 55 -77 62
-105 4 -15 17 -31 30 -37 13 -6 24 -16 24 -21 0 -6 2 -8 6 -5 3 3 -4 21 -15
39 -12 19 -21 27 -21 19 0 -13 -1 -13 -10 0 -5 8 -10 22 -10 30 0 12 2 12 9 2
5 -8 8 16 7 57 -1 39 0 71 1 71 2 0 11 -17 22 -38 11 -21 27 -44 35 -51 14
-12 16 -11 16 7 0 11 -7 25 -16 33 -31 26 -57 93 -60 157 -2 39 0 61 6 57 6
-3 10 -12 10 -18 0 -7 11 -28 24 -48 14 -21 24 -49 24 -71 0 -19 8 -50 17 -68
9 -18 14 -42 11 -55 -4 -15 4 -34 24 -61 16 -21 30 -45 30 -51 0 -7 6 -13 13
-13 9 0 12 29 12 120 -1 66 1 117 4 115 2 -3 10 -40 16 -83 7 -42 16 -85 20
-95 5 -12 3 -17 -5 -15 -22 5 -22 -20 -1 -41 12 -12 26 -21 31 -21 9 0 14 29
13 68 -1 22 -24 360 -32 472 -5 60 -4 113 1 123 6 11 6 23 0 30 -16 19 -19
122 -4 140 11 13 11 17 -2 24 -12 6 -17 33 -20 108 -3 55 -14 246 -26 425 -11
179 -26 454 -34 612 -7 159 -15 290 -18 293 -3 3 -26 6 -51 8 -44 2 -47 1 -48
-23 l0 -25 -11 23 c-6 12 -15 23 -20 24 -29 5 -33 1 -30 -29 2 -19 -1 -33 -7
-33 -6 0 -11 9 -11 19 0 34 -10 49 -30 44 -15 -4 -18 -14 -17 -49 2 -43 2 -44
38 -42 46 2 71 -12 42 -23 -18 -7 -20 -14 -16 -48 7 -54 -14 -55 -23 -2 -4 27
-12 41 -26 44 -18 5 -19 0 -18 -51 2 -75 1 -80 -10 -62 -5 8 -10 36 -10 61 0
38 -4 48 -20 52 -16 4 -20 0 -20 -22 0 -15 -7 -36 -15 -47 -13 -18 -14 -16
-15 22 0 56 -24 66 -42 19 -6 -19 -16 -35 -20 -35 -11 0 1 79 16 105 10 20 11
19 14 -2 4 -25 14 -28 43 -13 13 7 25 7 38 0 14 -7 22 -7 27 2 4 6 2 14 -5 16
-7 2 -9 15 -5 37 4 24 2 34 -10 38 -12 5 -20 -4 -31 -29 -8 -20 -19 -33 -25
-29 -6 4 -7 13 -1 23 9 19 4 42 -9 42 -5 0 -18 -10 -30 -22 -17 -18 -20 -19
-20 -5 0 14 -10 17 -49 17 -53 0 -61 -8 -61 -59 0 -38 16 -50 61 -44 21 3 39
1 39 -4 0 -5 -18 -9 -40 -10 -22 -1 -44 -4 -49 -7 -5 -3 -11 -65 -15 -138 -4
-73 -13 -239 -21 -368 -14 -232 -19 -324 -30 -550 -11 -224 -15 -260 -32 -260
-12 0 -14 8 -9 38 6 42 22 274 36 537 15 292 31 537 39 608 4 37 8 192 10 345
1 152 4 318 6 367 6 139 20 669 20 775 0 73 -5 108 -22 151 -14 37 -18 56 -10
56 7 0 42 6 79 12 87 14 294 15 381 1 37 -6 72 -8 78 -5 20 13 7 24 -48 41
-44 13 -96 18 -213 18 -173 1 -263 -8 -284 -30 -12 -12 -17 -5 -35 48 -22 66
-27 94 -10 66 8 -14 15 -15 36 -7 42 16 211 39 283 39 36 0 117 -9 180 -19 63
-11 118 -16 121 -12 4 3 9 18 13 34 5 22 3 27 -13 27 -11 0 -23 5 -27 11 -4 8
3 9 25 4 27 -6 32 -3 41 21 8 19 8 30 0 38 -18 18 -12 45 9 39 14 -3 20 2 24
23 5 27 4 28 -10 9 -15 -20 -15 -20 -10 2 3 12 0 27 -7 32 -31 26 -139 43
-309 48 -162 5 -205 13 -137 26 50 9 316 -3 381 -17z m-4903 -996 c66 0 72 -2
72 -21 0 -11 -4 -18 -10 -14 -5 3 -169 6 -365 6 -286 -1 -355 2 -355 13 0 7 2
15 4 17 2 2 134 3 293 2 158 -1 321 -2 361 -3z m6870 -439 c135 -1 164 -4 168
-16 14 -34 -1 -40 -86 -35 -45 3 -83 4 -85 2 -1 -2 -110 -3 -241 -3 -214 -1
-239 1 -242 16 -8 38 1 40 164 38 88 -1 232 -2 322 -2z m-12197 -83 c8 -14 9
-47 5 -97 -3 -42 -6 -190 -6 -328 -1 -139 -5 -253 -9 -253 -13 0 -22 31 -13
44 4 6 6 151 3 321 l-6 310 -205 0 -205 0 -5 -102 c-3 -56 -8 -105 -12 -109
-5 -4 -8 45 -8 109 0 83 4 117 13 120 6 3 107 6 224 6 208 1 213 1 224 -21z
m1689 0 c0 -17 -23 -18 -350 -18 -285 0 -350 2 -350 13 0 8 2 16 4 18 2 2 160
4 350 4 323 0 346 -1 346 -17z m6 -99 c-3 -17 -6 -159 -6 -315 l0 -283 -82 6
c-46 3 -206 6 -356 7 -258 1 -272 2 -272 20 0 12 5 16 15 12 19 -7 532 -9 543
-2 9 5 5 156 -4 166 -10 9 -419 5 -426 -4 -4 -6 -14 -4 -24 5 -13 11 -18 11
-21 2 -3 -9 -10 -10 -23 -3 -13 7 -21 7 -25 0 -10 -17 -35 -11 -35 8 0 15 10
17 88 14 145 -4 464 -2 473 3 4 3 5 13 2 21 -5 13 -40 15 -267 13 -143 -1
-268 -6 -277 -10 -25 -13 -33 28 -8 41 10 6 19 7 19 3 0 -4 119 -9 264 -11
l264 -4 -1 82 c-1 66 -4 83 -18 90 -12 7 -21 5 -29 -5 -14 -17 -35 -21 -25 -5
4 6 -5 10 -19 10 -14 0 -26 -3 -25 -7 2 -15 -13 -53 -21 -53 -4 0 -10 8 -13
19 -2 10 1 18 7 17 6 0 12 4 14 9 3 13 -40 17 -153 13 -28 -1 -57 2 -64 6 -22
14 -38 -11 -23 -35 11 -16 11 -24 1 -36 -10 -12 -10 -19 0 -35 16 -26 3 -39
-15 -14 -14 19 -14 19 -14 -2 0 -12 -2 -22 -4 -22 -15 0 -36 14 -36 24 0 7
-11 27 -25 46 -30 41 -33 34 -4 -14 11 -19 18 -39 16 -43 -3 -4 -29 -8 -58 -8
l-54 0 -1 53 c0 29 3 55 8 58 4 3 5 11 1 17 -4 6 -7 49 -8 94 l0 83 364 0 364
0 -7 -31z m14907 -45 c3 -3 3 -12 0 -20 -4 -12 -65 -14 -358 -14 -343 0 -377
3 -360 30 7 11 707 15 718 4z m-14251 -516 c57 -61 68 -79 68 -108 0 -29 6
-39 34 -58 27 -18 33 -29 30 -48 -3 -18 0 -24 13 -24 17 0 18 -15 17 -193 0
-183 -1 -192 -20 -192 -18 0 -19 10 -22 190 -2 155 -5 191 -17 198 -8 4 -15
17 -15 27 0 21 -43 55 -59 46 -5 -4 -8 16 -7 46 1 38 -3 52 -14 56 -11 3 -12
1 -4 -7 15 -16 5 -64 -12 -57 -8 3 -11 0 -8 -9 5 -12 0 -12 -28 -5 -18 6 -40
10 -48 10 -13 0 -13 -1 0 -10 10 -7 11 -10 2 -10 -7 0 -15 6 -17 13 -6 14 -55
20 -55 6 0 -5 5 -9 11 -9 5 0 8 -4 5 -9 -3 -5 -15 -7 -26 -4 -11 3 -20 0 -20
-6 0 -6 -16 -19 -35 -28 -19 -9 -32 -20 -29 -25 3 -4 0 -8 -5 -8 -24 0 -9 31
24 52 31 20 35 27 30 54 -5 28 2 39 57 99 35 37 65 71 66 76 7 17 17 9 84 -63z
m8946 -20 c3 -17 -16 -18 -297 -18 -189 0 -302 4 -306 10 -17 27 15 30 303 28
273 -3 297 -4 300 -20z m-9607 -68 c1 -48 0 -112 -2 -130 -7 -52 -17 -50 235
-50 130 0 237 -4 240 -9 11 -18 -6 -42 -25 -36 -14 5 -20 -2 -28 -30 -5 -20
-7 -51 -4 -70 5 -29 10 -35 32 -36 14 0 62 -1 106 -2 63 -2 80 -5 80 -17 0 -9
-12 -17 -30 -20 -29 -5 -29 -6 -30 -70 0 -36 2 -99 5 -140 l5 -75 65 0 c52 0
65 -3 68 -16 2 -13 -5 -17 -35 -17 -21 0 -43 4 -48 8 -13 11 -56 10 -70 -1 -7
-5 -10 48 -10 153 l0 161 -340 0 c-388 0 -455 3 -455 22 0 13 125 28 144 17 8
-5 499 -3 502 1 1 1 -1 33 -5 70 l-6 68 -238 2 c-218 2 -239 4 -249 20 -7 14
-13 16 -23 7 -8 -7 -20 -8 -27 -4 -17 11 -368 11 -368 0 0 -5 -7 -3 -15 4 -10
8 -42 11 -100 9 -52 -3 -85 0 -85 6 0 6 121 10 343 11 l342 0 1 41 c0 25 -4
41 -10 40 -6 -1 -9 5 -7 13 16 62 9 73 -39 59 -23 -7 -23 -7 8 -8 34 -1 41
-12 18 -33 -11 -11 -11 -16 1 -34 18 -28 5 -38 -50 -39 -41 -1 -59 17 -39 37
8 8 8 17 1 31 -6 10 -9 27 -6 37 4 14 -3 22 -24 29 -16 5 -29 6 -29 1 0 -5
-10 -7 -22 -5 -33 7 -254 9 -264 3 -5 -3 -30 -3 -55 1 -45 7 -73 7 -133 0 -16
-2 -31 1 -33 6 -2 7 86 11 268 10 149 0 275 3 280 6 5 3 43 5 84 5 l75 0 1
-36z m2619 -194 c0 -12 -73 -14 -486 -15 -268 0 -491 2 -495 5 -33 20 46 24
492 24 415 0 489 -2 489 -14z m2650 -102 c0 -8 -6 -24 -12 -35 -10 -17 -10
-23 0 -26 6 -3 12 -18 12 -34 0 -26 3 -29 35 -29 19 0 35 5 35 11 0 6 -8 8
-19 4 -18 -5 -18 -3 -8 19 13 27 33 37 23 11 -3 -9 0 -15 9 -15 10 0 14 -12
13 -40 l0 -40 -214 0 -214 0 0 25 0 25 155 0 155 0 0 81 c0 71 2 80 15 69 8
-7 15 -19 15 -26z m12865 -204 c-17 -7 -17 -9 -3 -9 17 -1 18 -29 20 -403 l3
-403 95 -1 c120 -2 116 -16 -5 -18 -73 -1 -90 -4 -90 -16 0 -11 15 -17 55 -21
l55 -6 -51 -1 c-60 -2 -64 -8 -64 -85 0 -80 -1 -80 144 -76 69 2 126 1 126 -3
0 -4 -60 -9 -132 -10 l-133 -3 3 -67 2 -68 -60 0 -60 0 0 424 c0 273 4 427 10
431 6 3 10 -3 10 -15 0 -12 5 -18 10 -15 9 5 12 -35 14 -197 1 -14 3 -24 5
-22 3 3 11 -6 18 -18 12 -23 12 -23 13 -1 0 12 -6 23 -12 26 -10 3 -10 9 -1
28 7 14 14 91 17 179 3 85 9 199 12 252 l6 97 -28 7 c-25 6 -26 8 -9 15 28 11
55 10 30 -1z m-15597 -90 c4 -10 -823 -13 -841 -3 -4 2 -5 7 -3 11 7 12 840 4
844 -8z m-3038 -339 c0 -16 6 -34 13 -40 12 -9 71 -9 119 1 7 2 13 -6 13 -17
0 -18 -6 -20 -50 -17 -35 2 -56 -2 -70 -13 -19 -15 -16 -16 50 -13 l70 3 1
-47 c1 -35 -2 -48 -13 -48 -19 0 -29 30 -12 40 7 5 11 11 8 15 -10 9 -99 13
-105 4 -11 -19 -25 -8 -24 19 1 15 2 39 1 54 l-1 28 -335 -5 c-314 -5 -335 -4
-335 13 0 16 18 17 227 19 141 1 229 6 231 12 2 7 11 6 23 -2 16 -10 21 -9 29
3 6 10 10 11 10 3 0 -7 6 -13 14 -13 8 0 17 6 20 13 5 10 7 10 12 0 3 -7 12
-13 19 -13 7 0 16 6 19 13 5 10 7 10 12 0 8 -18 34 -16 34 2 0 8 5 15 10 15 6
0 10 -13 10 -29z m5970 -49 c0 -16 -22 -17 -267 -15 -231 2 -268 4 -271 17 -3
14 30 16 260 18 145 2 266 2 271 0 4 -2 7 -11 7 -20z m-6240 -287 c0 -13 -33
-15 -230 -17 -126 -1 -238 -2 -247 -2 -10 -1 -19 7 -21 17 -3 16 14 17 247 17
216 0 251 -2 251 -15z m19474 -653 c8 -14 -45 -56 -73 -57 -24 0 -26 -2 -23
-42 6 -68 -3 -84 -46 -81 l-37 3 -3 -73 -3 -74 43 3 c49 3 68 -5 68 -27 0 -11
-4 -12 -19 -5 -10 6 -21 7 -25 4 -4 -4 -19 -7 -34 -8 l-27 0 -3 -172 -2 -173
-86 0 c-74 0 -85 2 -80 16 3 9 7 43 8 77 1 52 2 56 6 22 l6 -40 6 40 c7 37 7
36 9 -20 1 -65 10 -88 28 -77 7 5 12 85 14 252 2 135 5 251 7 257 3 9 16 11
43 7 l39 -7 0 68 0 68 30 -7 c26 -5 32 -2 40 19 7 19 18 25 52 28 24 2 46 4
50 5 4 1 9 -1 12 -6z m-24784 -279 l0 -133 -37 0 -38 0 1 128 c0 70 2 129 2
133 1 3 18 5 37 5 l35 0 0 -133z m15692 95 c-6 -8 -10 -128 -11 -317 -1 -167
-4 -307 -7 -312 -19 -32 -24 32 -24 322 l0 319 26 0 c20 0 24 -3 16 -12z
m-10981 -244 c12 -31 10 -34 -17 -24 -14 6 -45 10 -70 10 l-45 0 1 -166 c2
-127 -1 -169 -11 -175 -7 -4 -17 -5 -21 -3 -4 3 -8 79 -8 169 0 90 -4 174 -9
187 l-9 23 91 -1 c79 -1 92 -4 98 -20z m19654 -39 l0 -37 -280 1 -280 0 -3 26
c-2 15 -1 32 1 38 3 9 78 11 283 10 l279 -2 0 -36z m-21505 10 c1 -5 1 -82 0
-170 0 -108 3 -171 12 -195 12 -31 14 -12 18 170 l5 204 78 0 79 -1 0 -119 1
-119 -42 2 -41 2 0 -50 0 -49 126 0 c110 0 125 -2 122 -16 -3 -14 -19 -16
-123 -15 -77 1 -122 6 -127 14 -3 6 -4 -9 -1 -34 l6 -44 -21 19 c-20 17 -23
18 -46 2 -24 -15 -26 -15 -43 10 -56 79 -55 79 -103 9 -26 -37 -29 -48 -20
-66 11 -19 9 -20 -22 -17 -32 3 -33 5 -38 53 -6 59 -3 75 16 75 11 0 14 32 14
173 l0 172 75 0 c43 0 75 -4 75 -10z m380 -112 l0 -123 -74 0 -75 0 -3 118
c-2 64 -2 119 -1 122 0 3 35 5 77 5 l76 0 0 -122z m200 10 c0 -62 0 -116 0
-120 0 -5 -37 -8 -82 -8 l-83 0 -3 109 c-1 61 -1 115 1 120 3 7 38 11 86 11
l81 1 0 -113z m-762 -62 l3 -169 -103 1 -103 2 -6 35 c-4 19 -7 29 -8 21 -2
-29 -35 -40 -118 -41 -50 0 -83 4 -85 11 -2 7 -12 7 -31 -2 -24 -11 -29 -10
-41 6 -7 10 -11 27 -8 37 4 17 14 19 76 18 39 0 96 1 126 4 30 2 63 0 72 -5
17 -9 18 -1 19 98 1 59 0 118 -1 131 -1 21 1 22 102 22 l103 0 3 -169z m-1550
-32 l-3 -132 -38 -1 -37 -1 0 133 0 132 40 0 41 0 -3 -131z m1020 -22 l-3
-111 -42 -2 -43 -2 0 113 0 113 45 0 46 0 -3 -111z m18210 50 c-3 -21 -7 -22
-138 -25 -106 -2 -136 -6 -143 -17 -12 -23 -64 -19 -70 5 -4 16 -11 19 -36 14
-28 -6 -31 -4 -31 19 0 14 4 27 10 29 5 2 100 2 211 0 200 -3 200 -3 197 -25z
m-17639 -371 c17 -44 136 -122 170 -111 11 3 25 -3 37 -17 10 -12 14 -18 8
-15 -7 4 -23 -3 -38 -14 -14 -11 -31 -17 -37 -13 -8 4 -9 3 -5 -5 4 -6 2 -18
-4 -27 -11 -12 -14 -12 -27 3 -13 17 -14 16 -8 -5 6 -22 5 -23 -15 -12 -21 11
-21 12 -3 32 10 11 29 24 42 29 13 5 21 12 18 15 -3 3 -20 -3 -39 -12 -18 -10
-35 -19 -38 -19 -17 -3 -50 -28 -49 -38 0 -9 2 -9 6 1 2 6 9 12 14 12 6 0 7
-5 3 -12 -5 -8 -2 -9 9 -5 10 4 20 0 26 -11 6 -9 11 -13 11 -9 0 4 9 3 19 -3
21 -11 22 -33 2 -53 -11 -10 -12 -8 -7 10 11 34 -11 37 -29 4 -8 -17 -15 -36
-15 -43 0 -17 17 2 23 27 4 16 5 14 6 -7 1 -18 6 -26 18 -24 15 2 22 18 25 54
2 16 13 15 28 -3 11 -13 9 -19 -7 -38 -11 -12 -26 -32 -32 -45 -7 -12 -16 -20
-22 -17 -5 4 -9 1 -9 -5 0 -7 8 -9 20 -5 14 4 20 2 20 -9 0 -10 -6 -13 -17 -9
-15 5 -14 3 2 -10 22 -18 23 -18 -55 -22 -35 -3 -62 1 -74 10 -17 13 -17 15
12 52 21 26 31 53 35 87 3 27 2 44 -2 38 -11 -18 -51 -3 -44 16 5 11 3 13 -8
7 -24 -15 9 25 60 72 l46 42 -23 16 c-12 9 -20 20 -17 25 3 4 -4 10 -15 13
-17 4 -18 2 -9 -14 5 -10 7 -19 5 -19 -3 0 -10 10 -17 21 -9 17 -8 24 2 31 10
6 7 7 -8 3 -24 -7 -33 9 -10 18 7 3 5 6 -5 6 -22 1 -24 31 -3 31 9 0 20 -11
24 -24z m1351 15 c0 -11 19 -9 38 3 17 10 26 1 19 -18 -3 -8 -22 -18 -41 -22
-30 -5 -36 -11 -36 -31 0 -18 4 -23 18 -19 9 3 33 -3 52 -14 29 -15 32 -20 17
-25 -20 -8 -69 2 -78 17 -5 7 -12 7 -24 0 -16 -8 -15 -10 11 -16 33 -7 84 -56
84 -80 0 -9 5 -16 10 -16 22 0 8 -17 -30 -39 -24 -13 -48 -20 -58 -16 -15 5
-13 9 11 27 27 20 27 21 10 41 -17 20 -17 20 2 14 16 -6 14 -2 -7 17 -16 14
-28 30 -28 36 0 5 -9 10 -20 10 -23 0 -27 -28 -6 -36 8 -3 12 -12 10 -19 -3
-7 -1 -16 5 -20 21 -12 -8 -44 -50 -55 -23 -6 -59 -8 -81 -5 l-40 7 21 22 c12
12 19 25 16 28 -3 3 -8 18 -11 34 -6 34 -11 41 -32 53 -15 8 -17 3 -14 -42 3
-61 -17 -98 -42 -78 -15 13 -42 3 -74 -26 -7 -7 -17 -13 -22 -13 -5 0 -11 6
-13 13 -3 6 -6 -1 -7 -18 -1 -29 -2 -29 -12 -7 -6 12 -17 22 -25 22 -13 0 0
-26 34 -69 2 -3 9 4 17 14 10 15 17 17 27 8 8 -6 31 -13 52 -17 20 -4 37 -11
37 -17 0 -5 -11 -7 -25 -3 -15 4 -25 2 -25 -5 0 -6 7 -8 15 -5 20 8 15 -33 -6
-48 -10 -7 -7 -8 13 -5 17 2 29 -1 32 -10 8 -20 -12 -24 -90 -21 -67 3 -68 3
-34 15 19 6 29 12 22 12 -7 1 -10 5 -7 11 3 5 -14 30 -39 55 -41 40 -55 49
-76 47 -3 0 -6 8 -6 18 0 10 3 18 6 18 22 -2 39 6 67 32 18 17 42 30 55 30 13
0 28 4 34 8 14 9 27 45 14 37 -6 -3 -10 -1 -10 4 0 6 7 11 15 11 23 0 18 16
-10 28 -33 15 -38 15 -32 -1 4 -10 -3 -10 -29 2 -18 9 -33 19 -34 23 0 3 81 5
181 4 129 -1 183 2 190 10 7 9 2 14 -21 19 -39 9 -38 22 1 30 19 4 33 15 36
26 5 19 23 27 23 10z m-1100 -69 c0 -11 16 -35 35 -55 19 -20 35 -38 35 -41 0
-2 -16 -10 -35 -16 -19 -6 -35 -18 -35 -25 0 -7 -6 -16 -12 -19 -7 -3 5 -3 27
1 45 6 43 6 70 4 15 -2 10 -6 -16 -17 -28 -11 -36 -20 -32 -34 3 -10 15 -21
26 -24 20 -6 20 -8 6 -19 -9 -7 -19 -28 -23 -47 l-7 -35 19 23 c17 21 19 22
32 7 11 -14 10 -18 -8 -31 -12 -8 -22 -21 -22 -29 0 -18 -59 -29 -107 -22 -60
10 -60 25 2 32 20 3 44 10 54 15 14 8 13 9 -4 7 -11 -1 -26 -6 -32 -10 -8 -5
-13 -4 -13 2 0 6 5 11 10 11 21 0 9 28 -15 34 -29 7 -32 23 -7 42 16 13 16 15
-3 30 -11 8 -19 20 -17 25 1 6 -2 8 -7 5 -16 -11 -22 11 -6 24 8 7 15 18 15
25 0 14 22 25 49 25 9 0 25 6 35 13 17 12 14 16 -33 51 -28 21 -51 42 -51 46
0 5 12 11 28 13 15 2 30 5 35 6 4 0 7 -7 7 -17z m3130 0 c0 -5 12 -15 27 -23
15 -8 36 -21 45 -29 27 -22 1 -31 -33 -11 -22 12 -31 13 -40 4 -9 -9 -9 -16 1
-28 14 -17 23 -65 12 -65 -13 0 -28 15 -35 33 -3 9 -16 17 -27 17 -11 0 -20 4
-20 9 0 5 -9 11 -20 14 -26 7 -26 -9 1 -24 17 -9 20 -16 14 -42 -4 -18 -7 -37
-8 -44 0 -10 -57 -15 -57 -5 0 1 7 19 15 39 8 20 14 37 13 38 -67 43 -93 76
-42 53 19 -9 30 -9 44 -1 9 7 33 15 52 18 30 6 34 10 30 31 -3 17 0 24 12 24
9 0 16 -4 16 -8z m10828 -40 c49 -4 58 -16 33 -48 l-21 -27 22 -24 c19 -20 20
-25 8 -33 -8 -5 -12 -10 -8 -10 4 0 -4 -12 -18 -27 -13 -14 -27 -37 -30 -50
-4 -13 -10 -23 -15 -23 -16 0 3 -28 23 -33 13 -4 17 -10 12 -18 -5 -9 -2 -11
8 -6 24 9 30 -4 11 -25 -17 -18 -89 -27 -78 -8 3 5 13 6 23 3 16 -6 16 -6 0
11 -10 9 -18 19 -18 21 0 3 8 2 18 -1 9 -3 7 1 -6 8 -12 8 -19 17 -15 22 4 4
1 12 -7 17 -13 8 -11 12 8 26 12 8 22 22 22 29 0 8 9 19 19 26 15 9 17 15 8
30 -9 13 -8 21 2 30 11 11 12 9 7 -9 -4 -12 -2 -24 3 -28 7 -3 8 0 5 9 -4 9
-1 16 6 16 10 0 10 3 0 15 -9 11 -16 13 -24 5 -15 -15 -34 -12 -56 10 -24 24
-26 40 -5 40 8 0 15 9 15 20 0 15 -7 20 -26 20 -14 0 -23 4 -20 9 5 7 18 8 94
3z m-14198 -18 c0 -3 -20 -29 -45 -56 -44 -49 -54 -68 -37 -68 17 0 52 -38 52
-56 0 -25 -8 -35 -52 -68 -39 -29 -48 -46 -25 -46 7 0 22 -7 33 -15 17 -13 12
-15 -61 -14 -44 0 -101 7 -127 15 -42 14 -47 18 -38 34 5 10 23 21 40 25 20 4
30 13 30 25 0 11 8 24 18 30 12 8 13 13 5 16 -7 3 -13 14 -13 24 0 12 -13 25
-34 35 -52 25 -50 38 10 75 30 18 54 36 54 41 0 5 43 9 95 9 52 0 95 -3 95 -6z
m2987 -62 c-24 -27 -21 -47 10 -61 25 -12 26 -13 9 -23 -13 -7 -26 -7 -42 1
-22 10 -24 8 -24 -14 0 -20 8 -28 39 -41 45 -18 58 -39 33 -53 -14 -8 -17 -26
-17 -113 0 -91 2 -105 20 -120 20 -16 20 -17 1 -24 -11 -4 -28 -16 -39 -27
-10 -10 -22 -16 -25 -12 -4 3 4 14 16 24 26 19 21 51 -7 51 -10 0 -12 3 -5 8
6 4 13 15 17 25 8 23 -19 23 -31 0 -9 -15 -11 -15 -26 -1 -9 9 -16 21 -16 27
0 6 -4 11 -10 11 -14 0 -13 -13 2 -28 9 -9 9 -15 1 -23 -20 -20 -33 2 -34 59
0 31 -4 77 -8 102 -7 38 -9 29 -10 -53 -1 -75 3 -104 15 -122 11 -16 12 -25 5
-25 -9 0 -9 -5 -1 -21 7 -11 9 -23 7 -26 -3 -2 -8 4 -11 15 -7 20 -40 20 -52
1 -3 -5 3 -6 12 -2 13 5 15 3 9 -7 -5 -8 -3 -17 6 -24 17 -13 19 -59 3 -74 -8
-8 -11 -4 -11 13 0 12 -8 37 -17 55 -18 36 -6 76 20 66 19 -7 18 8 -1 24 -13
11 -15 35 -13 134 l3 121 48 3 c33 2 47 7 47 18 0 8 -6 16 -12 18 -55 17 -60
23 -22 29 10 1 28 8 39 15 20 12 20 12 -4 32 -28 24 -27 26 30 44 60 19 65 19
46 -2z m-2077 -31 c0 -11 -62 -41 -72 -35 -4 3 -8 0 -8 -6 0 -7 -6 -8 -19 -1
-14 8 -22 7 -32 -6 -10 -12 -10 -15 -1 -9 12 7 15 0 15 -36 0 -10 4 -15 8 -12
5 3 7 10 4 15 -10 15 5 11 41 -12 39 -23 41 -31 17 -54 -13 -14 -14 -18 -3
-25 9 -6 18 -3 25 7 13 18 35 10 35 -13 0 -24 -63 -44 -137 -43 -47 0 -62 3
-48 9 11 5 33 9 48 9 38 1 79 41 42 41 -8 0 -24 9 -34 19 -14 14 -22 16 -31 7
-10 -8 -11 -7 -6 8 7 19 6 19 -14 1 -11 -10 -19 -23 -17 -29 2 -6 -12 -23 -32
-38 -28 -22 -47 -28 -88 -28 -87 0 -64 25 31 34 21 2 43 9 50 16 8 8 7 10 -6
5 -11 -4 -18 -2 -18 4 0 6 11 13 25 17 24 6 65 47 65 65 0 5 -9 9 -19 9 -24 0
-34 25 -15 41 39 33 82 48 137 48 31 1 57 -3 57 -8z m20864 3 c9 -3 16 -12 16
-20 0 -7 16 -16 35 -20 l35 -6 0 -143 c0 -101 -3 -144 -12 -147 -6 -2 -9 -12
-5 -21 7 -17 35 -13 49 7 5 8 8 8 8 0 0 -6 -9 -23 -21 -38 -17 -22 -19 -29 -8
-42 10 -13 10 -17 -2 -25 -21 -13 -26 -11 -32 12 -3 12 -10 18 -15 15 -5 -3
-17 1 -27 8 -17 12 -16 14 13 31 24 15 29 22 20 32 -8 10 -8 17 0 25 15 15 16
38 2 38 -5 0 -10 -9 -10 -21 0 -12 -5 -19 -12 -17 -9 3 -14 43 -16 141 l-3
137 -29 21 c-38 28 -29 49 14 33z m-21175 -34 c32 -16 63 -36 71 -44 7 -9 19
-16 27 -16 11 0 9 -7 -7 -27 -12 -16 -27 -28 -33 -28 -7 0 -11 -8 -9 -18 2
-14 -6 -12 -50 12 -29 16 -60 26 -68 23 -11 -4 -11 0 3 16 15 16 16 22 5 28
-7 5 -17 9 -23 9 -5 0 -10 7 -10 15 0 17 -39 32 -61 23 -23 -9 -11 -27 24 -38
35 -10 41 -29 15 -44 -17 -10 -17 -10 1 -11 11 0 30 -10 43 -22 23 -22 32 -45
12 -33 -6 4 -20 -3 -31 -14 -17 -19 -29 -21 -88 -19 l-69 2 29 20 c16 12 30
27 30 35 0 8 7 23 17 33 19 21 5 24 -22 4 -24 -17 -65 -2 -46 17 16 16 14 37
-4 37 -8 0 -15 6 -15 13 0 27 35 46 90 49 30 2 68 4 83 5 15 1 54 -11 86 -27z
m-2801 -20 c2 5 15 10 28 10 17 0 24 -6 24 -20 0 -12 -7 -20 -17 -21 -14 0
-13 -3 5 -11 12 -6 22 -19 22 -28 0 -10 7 -23 15 -30 23 -19 18 -32 -20 -63
-19 -15 -35 -32 -35 -37 0 -5 20 -34 45 -64 l44 -55 -26 -21 c-14 -11 -34 -20
-44 -20 -23 0 -25 -23 -3 -44 14 -15 13 -18 -20 -31 -42 -18 -45 -29 -12 -50
24 -16 41 -44 32 -52 -3 -3 -20 9 -38 26 -18 17 -38 31 -45 31 -29 0 -20 21
19 46 37 24 40 28 23 34 -11 4 -24 8 -29 8 -5 0 -15 14 -24 31 -16 34 -46 41
-56 14 -6 -15 -7 -15 -19 1 -7 9 -24 22 -37 29 -14 7 -31 25 -38 40 -7 15 -17
27 -23 27 -5 0 -9 7 -9 16 0 14 12 16 85 13 47 -2 81 -2 75 -1 -21 7 -10 52
14 62 13 5 29 17 35 27 6 10 11 13 11 6 0 -7 -14 -25 -31 -41 -27 -25 -29 -30
-15 -41 13 -11 23 -6 68 38 47 47 50 52 36 68 -8 10 -20 32 -25 48 -8 24 -16
30 -37 30 -15 1 -32 8 -37 17 -8 15 -5 16 23 7 22 -6 34 -6 36 1z m7048 -61
c10 -9 20 -8 36 3 39 25 225 11 199 -15 -7 -7 -15 -6 -26 3 -8 7 -18 10 -21 7
-3 -3 9 -13 26 -22 19 -10 29 -12 25 -5 -5 8 -3 11 5 8 26 -8 20 -26 -15 -47
-40 -23 -85 -27 -103 -9 -9 9 -12 9 -12 0 0 -7 -7 -12 -15 -12 -20 0 -19 13 3
33 31 28 69 26 80 -4 8 -20 9 -20 25 -4 19 19 13 39 -9 31 -8 -3 -17 1 -20 9
-4 10 -14 13 -28 9 -12 -3 -29 -6 -37 -8 -32 -5 -59 -18 -59 -27 0 -6 -5 -7
-11 -3 -8 4 -9 0 -4 -15 8 -27 -6 -27 -30 -1 -18 20 -18 21 0 34 16 12 16 13
1 19 -9 4 -16 2 -16 -3 0 -6 -9 -10 -20 -10 -26 0 -25 -8 2 -37 l22 -24 -48 5
c-27 3 -57 1 -68 -5 -30 -16 -32 -4 -4 26 15 16 32 25 40 22 13 -5 51 31 43
40 -2 1 -26 -5 -53 -14 -35 -11 -55 -24 -67 -44 -19 -34 -37 -38 -37 -9 0 11
-6 23 -14 26 -8 3 -12 12 -9 21 5 12 7 12 14 1 7 -10 9 -9 9 5 0 20 -9 21 -33
3 -15 -12 -16 -18 -8 -35 15 -27 14 -41 -4 -41 -9 0 -12 6 -9 15 4 8 1 15 -5
15 -6 0 -11 -7 -11 -15 0 -9 -9 -14 -27 -13 -16 1 -37 -2 -48 -6 -11 -4 7 17
40 48 54 51 64 55 115 59 78 6 171 -1 186 -14z m6308 -54 c-1 -13 6 -31 17
-41 10 -9 19 -30 19 -45 0 -18 7 -32 20 -39 23 -12 27 -30 6 -30 -24 0 -7 -38
20 -44 33 -9 30 -19 -11 -39 -42 -20 -91 -22 -98 -4 -4 10 -7 10 -18 0 -11
-11 -10 -13 4 -13 9 0 17 -6 17 -14 0 -8 13 -17 29 -21 16 -3 36 -14 43 -23
10 -12 10 -14 0 -8 -15 9 -72 -2 -72 -14 0 -4 11 -11 25 -14 16 -4 25 -13 25
-25 0 -10 14 -34 31 -52 23 -24 27 -34 17 -40 -19 -13 -28 -11 -22 4 5 15 -37
55 -53 50 -6 -2 -9 6 -6 20 5 28 -7 40 -31 31 -21 -8 -33 -73 -15 -85 10 -6 8
-12 -10 -28 -12 -11 -20 -25 -16 -30 4 -7 -1 -9 -12 -5 -17 5 -17 5 -1 -8 17
-15 22 -30 18 -63 l-1 -20 -9 20 c-8 18 -9 18 -9 2 -1 -10 6 -20 15 -24 15 -6
15 -8 -2 -20 -10 -7 -23 -13 -30 -13 -17 0 -23 110 -8 133 9 14 9 27 2 48 -6
16 -7 40 -4 54 8 31 -16 90 -43 107 -33 20 -25 37 24 49 66 17 75 33 35 68
-33 28 -33 29 -12 40 l22 12 -20 21 c-11 12 -20 26 -20 30 0 5 32 7 70 4 73
-4 82 2 52 32 -30 30 -33 57 -7 58 17 1 21 -3 19 -21z m10476 -50 l0 -30 -277
2 c-243 3 -278 5 -281 19 -9 38 -3 39 282 39 l276 0 0 -30z m-16689 -35 c501
0 915 3 921 6 18 12 58 -19 67 -52 5 -18 5 -47 1 -66 -4 -18 -8 -26 -9 -17 -1
9 -8 16 -15 16 -11 0 -8 -12 11 -46 15 -25 31 -52 37 -60 9 -12 8 -13 -6 -9
-12 5 -18 0 -22 -18 -4 -14 -4 -30 0 -36 9 -15 -18 -29 -33 -16 -9 7 -10 16
-3 28 13 24 -4 64 -34 79 -16 9 -119 11 -369 9 -296 -3 -349 -5 -357 -18 -9
-13 -10 -13 -10 0 -1 8 -10 -3 -22 -24 -17 -33 -22 -37 -30 -23 -5 9 -13 17
-18 17 -16 0 -11 -30 5 -36 8 -4 15 -14 15 -23 0 -12 19 -20 76 -33 41 -10 88
-27 105 -39 16 -11 36 -18 44 -15 7 2 24 -3 37 -13 13 -10 29 -16 37 -13 19 6
141 -28 141 -40 0 -6 7 -8 15 -5 8 4 17 2 20 -3 10 -16 -16 -11 -63 12 -25 12
-66 22 -93 22 -27 1 -54 7 -61 14 -15 15 -42 16 -32 1 3 -6 -8 -3 -25 5 -17 9
-33 15 -36 14 -2 -2 -13 5 -24 14 -11 9 -22 13 -26 10 -4 -4 -26 -7 -50 -7
-24 0 -39 2 -33 6 7 4 6 9 -2 14 -16 10 -24 -1 -16 -21 4 -11 14 -15 31 -12
15 3 22 1 18 -5 -4 -6 2 -8 15 -5 14 4 20 2 15 -5 -4 -6 2 -8 15 -5 16 4 22 2
22 -9 0 -8 -6 -13 -12 -10 -16 5 -50 16 -198 63 -63 20 -131 44 -150 54 -19 9
-77 30 -128 45 -74 23 -92 32 -87 44 5 14 4 14 -11 -1 -15 -15 -19 -15 -53 4
-70 40 -232 89 -421 127 l-45 9 45 2 c25 1 50 1 55 0 6 -1 24 -4 40 -6 40 -4
88 -11 100 -15 6 -2 24 0 41 5 17 4 53 2 80 -4 27 -7 60 -14 74 -16 42 -8 94
-26 118 -41 23 -14 47 -9 26 5 -18 12 -46 76 -34 80 5 2 10 7 10 11 0 5 -66 8
-147 8 -82 -1 -158 2 -170 6 -18 7 -21 5 -16 -11 6 -25 -13 -38 -33 -21 -9 7
-57 14 -119 17 -93 4 -105 2 -105 -13 0 -25 -20 -7 -20 18 -1 17 -4 15 -16
-12 -8 -19 -13 -40 -10 -46 2 -7 39 -15 88 -19 79 -6 272 -47 285 -60 4 -3
-25 -3 -63 0 -38 3 -72 11 -75 16 -4 6 -20 7 -37 3 -18 -3 -40 -1 -53 5 -17 9
-23 9 -29 0 -5 -8 -23 -11 -53 -7 -36 5 -47 2 -51 -10 -6 -14 -4 -14 11 -2 15
12 16 12 10 -5 -5 -14 -3 -17 8 -13 20 8 28 -8 20 -42 -7 -33 -31 -33 -61 0
-14 16 -15 23 -5 48 10 24 10 34 -4 60 -11 21 -14 43 -9 66 4 23 2 35 -5 35
-6 0 -11 8 -11 18 0 14 2 15 10 2 8 -12 10 -12 16 3 3 9 10 14 15 11 5 -2 419
-5 920 -4z m-3578 -53 c6 -43 -1 -47 -25 -14 -16 22 -23 25 -34 16 -11 -9 -15
-7 -20 6 -4 10 -9 13 -13 6 -5 -7 -106 -12 -291 -15 -157 -2 -293 -5 -302 -5
-10 -1 -26 -1 -35 0 -20 1 -64 1 -323 1 -261 -1 -271 -2 -235 -39 14 -14 14
-18 1 -38 -8 -12 -17 -47 -19 -76 -2 -30 -4 -6 -5 54 -1 63 -6 107 -12 107 -5
0 -10 -8 -10 -18 0 -10 -3 -22 -7 -25 -3 -4 -8 -35 -10 -69 -3 -72 -8 -88 -23
-88 -7 0 -9 8 -5 21 4 11 4 37 0 57 l-8 37 -13 -32 c-12 -29 -36 -47 -33 -25
1 4 1 16 0 27 -1 16 -5 13 -17 -12 -16 -31 -39 -38 -28 -8 3 7 1 22 -4 32 -9
16 -11 15 -17 -10 -7 -28 -35 -38 -35 -12 0 8 -4 15 -10 15 -5 0 -7 -7 -4 -15
4 -8 1 -15 -5 -15 -15 0 -14 63 2 79 10 10 9 11 -5 6 -12 -5 -18 -18 -18 -41
0 -20 -5 -34 -12 -35 -7 0 -2 -4 10 -10 13 -5 28 -7 33 -4 5 4 6 -1 3 -9 -7
-18 -24 -22 -24 -6 0 6 -8 10 -17 10 -14 0 -12 -4 7 -25 13 -14 18 -25 12 -25
-6 0 -14 5 -17 10 -3 6 -11 10 -16 10 -6 0 -7 -4 -4 -10 3 -6 -1 -7 -9 -4 -9
3 -16 11 -17 18 -3 36 4 93 13 104 8 9 6 17 -6 30 -19 22 -21 43 -4 60 10 10
189 12 809 11 l797 -1 5 -31z m8895 -50 c7 -6 17 -6 25 1 8 7 18 7 27 2 9 -5
19 -5 27 2 10 8 13 6 13 -6 0 -17 -17 -20 -80 -17 -49 3 -90 -14 -90 -38 0
-10 7 -22 15 -25 12 -4 13 -11 7 -23 -5 -10 -12 -62 -15 -115 -5 -83 -4 -99
10 -107 10 -5 14 -15 10 -25 -9 -23 -30 -20 -24 3 3 12 -1 22 -9 25 -8 3 -14
20 -14 41 0 30 -2 34 -13 23 -7 -7 -16 -21 -20 -30 -7 -20 -23 -23 -32 -7 -13
20 -17 139 -6 139 6 0 11 3 11 8 0 4 -20 7 -43 7 -37 0 -42 -2 -30 -13 7 -8
20 -11 29 -8 10 4 13 2 7 -7 -4 -6 -8 -16 -8 -22 0 -5 -15 -11 -32 -13 -25 -2
-33 -8 -33 -23 0 -10 -5 -19 -11 -19 -6 0 -9 15 -7 35 4 50 -13 47 -30 -5 -19
-57 -17 -55 -41 -31 -12 12 -17 21 -12 21 6 0 13 -5 17 -11 4 -7 10 -7 16 -1
12 12 1 35 -12 27 -5 -3 -11 -1 -15 5 -4 6 -11 5 -19 -3 -16 -14 -12 -47 10
-88 14 -27 13 -29 -6 -29 -13 0 -20 -7 -20 -19 0 -11 -4 -22 -9 -26 -16 -9
-24 15 -11 30 10 13 8 15 -16 16 -25 0 -26 1 -9 9 17 7 17 9 3 9 -10 1 -18 6
-18 11 0 6 -12 11 -27 11 -17 1 -21 3 -10 6 17 5 24 23 8 23 -17 0 -61 -27
-54 -33 3 -4 -1 -7 -10 -7 -9 0 -19 5 -22 10 -4 6 -11 8 -16 4 -6 -3 -5 -12 3
-22 11 -13 11 -14 0 -8 -7 4 -18 3 -25 -2 -7 -5 -19 -10 -27 -10 -8 0 -33 -6
-55 -11 -22 -6 -64 -13 -93 -17 -29 -3 -63 -9 -76 -14 -12 -4 -53 -11 -91 -15
-39 -4 -74 -11 -80 -15 -5 -4 -46 -11 -90 -14 -44 -4 -111 -11 -150 -14 -90
-9 -349 -7 -397 3 -76 15 -25 22 129 19 87 -1 203 1 258 6 254 24 315 31 391
49 44 11 98 22 121 25 98 11 174 34 187 55 4 5 19 12 35 16 16 3 35 13 42 21
6 8 22 14 34 14 21 0 76 22 180 70 22 10 62 28 89 39 34 15 46 25 42 36 -3 10
1 15 14 15 10 0 22 5 25 10 4 6 23 17 43 26 29 12 34 17 22 24 -11 7 -7 9 15
8 17 -1 36 -6 43 -11z"/>
<path d="M2560 6171 c-9 -18 -39 -136 -55 -216 -10 -49 -35 -209 -35 -223 0
-10 37 -12 168 -10 l167 3 10 160 c10 156 10 160 -12 204 -13 24 -23 52 -23
61 0 32 -22 40 -117 40 -81 0 -94 -2 -103 -19z"/>
<path d="M2848 6153 c-1 -21 -3 -65 -4 -98 -1 -33 -6 -122 -9 -197 l-7 -138
181 0 181 0 0 23 c0 20 -10 82 -54 340 -8 48 -18 92 -21 97 -4 6 -62 10 -136
10 l-129 0 -2 -37z"/>
<path d="M14703 6178 c-18 -9 -23 -20 -24 -52 -1 -56 -7 -241 -14 -416 -12
-292 -12 -289 9 -278 10 6 34 8 52 5 29 -5 34 -2 45 26 l13 32 3 -27 c5 -31
24 -36 43 -13 10 13 14 13 28 -1 11 -12 24 -14 51 -8 38 7 57 8 80 2 8 -2 17
7 20 21 l6 24 12 -27 c12 -25 26 -31 66 -27 9 1 29 -7 44 -18 32 -26 40 -21
20 11 -15 22 -29 272 -29 518 0 47 -5 94 -11 105 -7 13 -7 20 1 23 11 3 5 81
-9 96 -4 5 -26 10 -48 12 -40 2 -41 2 -41 -31 0 -19 5 -37 10 -40 8 -5 8 -11
1 -19 -6 -7 -8 -73 -6 -171 3 -125 2 -156 -8 -140 -7 13 -12 85 -14 199 -2
183 -6 217 -23 200 -11 -11 -15 -380 -5 -406 4 -10 3 -18 -3 -18 -18 0 -20 22
-21 225 -1 109 -3 201 -6 203 -2 3 -10 0 -17 -6 -10 -8 -13 -63 -13 -226 0
-119 -2 -216 -5 -216 -3 0 -11 4 -18 9 -11 6 -11 20 -3 66 14 73 14 78 0 69
-8 -4 -9 3 -5 25 3 17 9 45 12 62 4 20 2 29 -4 25 -6 -4 -8 28 -6 90 2 77 0
96 -12 101 -8 3 -17 3 -20 0 -3 -3 -6 -90 -6 -194 -1 -103 -5 -199 -10 -212
-14 -39 -20 -17 -10 40 6 30 7 58 4 64 -4 5 -5 76 -4 158 2 122 1 147 -11 147
-23 0 -26 -18 -27 -205 -1 -227 -17 -266 -20 -49 -3 158 -2 191 3 229 2 24
-35 31 -70 13z"/>
<path d="M2464 5691 c-4 -9 -6 -19 -6 -23 1 -5 -4 -54 -12 -110 -15 -109 -13
-118 28 -111 17 4 25 -1 29 -16 5 -19 1 -21 -33 -21 -22 0 -41 -4 -44 -8 -4
-7 -28 -263 -30 -321 l-1 -24 183 -1 c101 -1 188 2 194 5 6 4 14 125 20 295 5
159 11 302 11 318 l2 30 -167 1 c-144 2 -168 0 -174 -14z"/>
<path d="M2825 5630 c-9 -89 -23 -492 -18 -502 2 -4 106 -6 231 -5 225 2 227
2 230 24 4 26 -29 47 -59 38 -16 -6 -20 -3 -17 11 2 10 17 21 36 26 18 5 32
15 32 23 0 16 -45 21 -150 16 -30 -2 -52 0 -49 3 3 4 46 8 95 9 l89 3 -4 65
c-2 35 -6 65 -10 67 -3 1 -6 28 -6 60 0 31 -5 84 -12 117 -7 33 -10 70 -7 82
4 16 1 25 -10 29 -9 3 -94 7 -190 8 l-174 1 -7 -75z"/>
<path d="M9637 5462 c1 -48 2 -90 2 -94 1 -5 21 -8 46 -8 25 0 45 -4 45 -10 0
-5 -20 -10 -44 -10 -46 0 -57 -10 -48 -43 4 -15 13 -18 48 -15 32 2 44 -1 44
-10 0 -10 -12 -12 -45 -9 -46 4 -60 -7 -49 -38 4 -11 21 -15 56 -15 35 0 48
-4 45 -12 -2 -9 -20 -12 -50 -10 -44 3 -47 2 -47 -22 0 -23 4 -25 48 -28 60
-4 57 -23 -4 -23 -42 0 -45 -2 -42 -25 3 -23 7 -25 48 -25 33 0 45 -4 45 -15
0 -12 -10 -14 -47 -12 -46 3 -48 2 -48 -22 0 -24 3 -26 50 -26 38 0 50 -4 50
-15 0 -11 -12 -15 -51 -15 -46 0 -50 -2 -47 -21 3 -18 11 -22 53 -25 72 -4 98
-4 102 -1 1 2 3 139 4 305 0 175 5 302 10 302 5 0 9 -127 9 -305 l0 -305 165
0 165 0 0 143 c1 78 1 201 1 272 0 148 7 222 19 190 4 -11 2 -28 -4 -38 -9
-15 -7 -22 11 -37 22 -18 22 -18 2 -23 -29 -8 -22 -51 9 -55 27 -4 30 -22 3
-22 -40 0 -37 -40 5 -59 14 -6 23 -7 20 -3 -4 8 8 8 77 3 4 -1 7 -5 7 -11 0
-6 -30 -10 -69 -10 -58 0 -69 -3 -67 -16 4 -25 25 -32 94 -31 67 0 86 13 62
42 -10 12 -10 18 0 30 7 8 10 25 7 37 -6 21 -11 23 -57 20 -30 -3 -50 0 -50 7
0 5 24 11 53 13 l52 3 0 72 c0 39 3 75 8 79 4 4 7 13 7 21 0 11 -65 13 -352
13 l-353 -1 2 -87z"/>
<path d="M2808 5104 c-5 -4 -8 -16 -8 -26 0 -17 14 -18 240 -18 197 0 240 2
240 14 0 7 -6 18 -12 23 -15 11 -450 18 -460 7z"/>
<path d="M2391 5021 c-6 -4 -11 -22 -10 -41 0 -19 -2 -51 -4 -70 -2 -19 -7
-74 -12 -122 l-8 -88 47 0 c25 0 55 -6 66 -12 17 -11 22 -10 29 1 6 10 10 10
16 1 11 -17 3 -20 -61 -21 -99 -1 -92 14 -93 -184 l-1 -175 208 0 209 0 -1
242 -1 243 -29 5 c-17 3 -29 8 -28 13 1 4 2 11 2 15 0 5 13 7 29 4 l30 -4 -2
98 -2 99 -187 1 c-103 1 -191 -2 -197 -5z"/>
<path d="M2802 5000 c3 -20 10 -21 228 -21 124 0 231 0 238 1 6 0 12 9 12 20
0 19 -7 20 -241 20 -236 0 -240 0 -237 -20z"/>
<path d="M16099 5012 l-96 -3 0 -134 0 -135 113 0 c124 0 125 0 113 65 -4 22
-3 47 2 57 6 10 5 19 -1 23 -7 4 -6 13 1 26 7 15 7 24 -1 34 -8 10 -8 19 2 34
20 33 2 38 -133 33z"/>
<path d="M2804 4951 c-2 -2 -4 -15 -4 -27 l0 -24 243 3 242 2 3 23 c2 13 -2
22 -10 23 -55 3 -471 3 -474 0z"/>
<path d="M13198 4896 c3 -39 -2 -64 -16 -93 -18 -35 -20 -61 -22 -268 -4 -473
-1 -585 14 -585 8 0 17 10 19 23 2 12 6 3 7 -23 3 -40 4 -37 10 25 15 145 7
975 -9 975 -3 0 -4 -24 -3 -54z"/>
<path d="M2800 4861 c0 -18 8 -20 78 -23 71 -3 77 -5 80 -25 4 -25 -16 -31
-36 -11 -9 9 -12 9 -12 0 0 -8 -19 -12 -55 -12 -46 0 -55 -3 -55 -17 0 -17 18
-18 247 -16 243 1 248 2 251 22 4 24 10 23 -130 21 -92 -1 -108 1 -108 14 0
14 17 16 121 16 119 0 120 0 117 23 l-3 22 -247 3 c-241 2 -248 2 -248 -17z"/>
<path d="M9644 4869 c-10 -17 7 -27 51 -31 27 -2 40 -8 40 -18 0 -12 -11 -14
-48 -12 -43 4 -48 2 -45 -15 3 -14 12 -18 45 -17 25 0 44 -4 47 -12 7 -17 -5
-58 -13 -45 -4 6 -22 12 -41 13 -29 3 -35 0 -35 -17 0 -17 6 -20 41 -17 43 4
60 -11 48 -43 -12 -30 4 -60 31 -60 14 0 27 7 29 15 2 8 4 72 4 143 l0 127
-73 0 c-42 0 -77 -5 -81 -11z"/>
<path d="M2800 4704 c0 -22 1 -22 255 -22 246 -1 255 0 255 19 0 10 -3 19 -7
19 -5 0 -119 2 -256 3 -246 2 -247 2 -247 -19z"/>
<path d="M16006 4723 c-1 -2 1 -183 4 -270 0 -8 31 -11 108 -10 l107 2 0 139
0 139 -108 1 c-60 1 -110 0 -111 -1z"/>
<path d="M2804 4571 c-2 -2 -4 -10 -4 -18 0 -11 47 -13 258 -11 206 2 257 6
257 16 0 11 -50 14 -253 15 -140 1 -256 0 -258 -2z"/>
<path d="M2369 4280 c-5 -3 -7 -180 -6 -400 l2 -395 207 -3 207 -2 -2 142 -2
143 -47 -1 c-36 -1 -48 2 -48 13 0 8 5 11 10 8 6 -3 16 -3 23 2 6 4 23 8 37 8
l25 0 1 242 c1 215 -1 243 -15 248 -22 7 -380 2 -392 -5z"/>
<path d="M10230 3930 l0 -50 255 -1 c140 -1 263 -2 273 -3 14 -1 17 8 17 49
l0 50 -272 3 -273 2 0 -50z"/>
<path d="M11171 3688 c1 -146 4 -211 10 -188 4 19 6 43 3 53 -4 11 0 17 10 17
18 0 21 31 5 47 -8 8 -8 13 0 17 6 4 11 22 11 39 0 21 3 28 9 19 11 -18 57
-11 53 8 -3 13 -1 13 10 1 10 -11 10 -14 1 -18 -7 -3 -13 -13 -13 -23 0 -10
-6 -21 -12 -24 -7 -3 -3 -3 10 0 17 4 22 1 22 -14 0 -18 -3 -19 -25 -9 -14 7
-25 15 -25 20 0 4 -4 7 -8 7 -5 0 -9 -7 -9 -15 0 -9 10 -15 24 -15 13 0 23 -5
23 -11 0 -6 7 -17 15 -25 13 -14 15 -11 17 23 1 25 3 16 7 -27 6 -59 7 -53 14
70 5 74 7 164 5 200 l-3 65 -77 3 -78 3 1 -223z"/>
<path d="M11366 3902 c-8 -7 -6 -208 4 -342 6 -101 7 -102 10 -35 2 55 4 64
10 40 8 -31 8 -23 14 197 3 123 11 98 14 -45 2 -90 6 -134 15 -139 7 -5 13 -1
15 9 2 8 -2 19 -8 23 -7 4 -9 13 -5 20 6 9 9 9 15 -1 5 -7 8 1 7 21 l-2 34 60
-2 c33 0 63 -1 68 -1 4 -1 7 -10 7 -21 0 -21 -12 -24 -76 -20 -19 1 -34 -4
-37 -12 -4 -11 7 -14 48 -14 29 1 49 4 43 7 -18 11 33 18 62 7 25 -8 29 -15
33 -56 3 -44 6 6 13 223 3 122 16 112 -155 113 -82 0 -152 -2 -155 -6z"/>
<path d="M11711 3723 c1 -111 5 -180 10 -172 5 8 9 23 10 34 l0 20 9 -20 c12
-27 12 -23 15 73 1 57 6 86 15 92 19 12 40 1 40 -21 0 -14 -7 -19 -26 -19 -31
0 -28 -23 4 -28 15 -2 22 -10 22 -26 0 -12 5 -27 12 -34 7 -7 8 -12 4 -12 -5
0 -15 8 -23 18 -8 10 -11 11 -7 2 7 -13 5 -13 -9 -1 -15 12 -17 11 -17 -3 0
-9 8 -16 20 -16 13 0 20 -7 20 -20 0 -11 7 -20 15 -20 13 0 15 -8 10 -37 -4
-28 -3 -33 4 -18 5 11 10 104 10 206 l1 187 -70 0 -71 0 2 -185z"/>
<path d="M10489 3843 l-257 -3 3 -63 2 -62 269 0 269 0 0 25 c0 21 -5 25 -32
26 -59 2 -63 4 -63 19 0 8 3 16 8 16 39 7 61 5 81 -8 15 -10 21 -11 16 -3 -4
7 -8 22 -9 34 -1 11 -8 21 -16 21 -8 0 -130 -1 -271 -2z"/>
<path d="M15421 3349 c1 -221 5 -396 9 -389 6 9 9 9 13 -1 6 -16 8 19 16 426
l6 310 93 2 c70 1 92 -2 92 -12 0 -7 7 -16 16 -19 14 -5 15 -4 5 8 -13 16 -6
40 9 31 5 -3 9 -131 10 -285 0 -155 3 -294 7 -310 7 -36 25 -29 22 8 -4 58 5
63 11 7 7 -59 14 215 12 435 -1 52 -1 116 -2 143 l0 47 -161 0 -160 0 2 -401z"/>
<path d="M15485 3670 c-3 -5 -1 -18 5 -29 5 -11 10 -70 10 -131 l0 -111 69 2
c38 1 74 -2 81 -6 10 -6 12 -4 7 9 -4 10 -7 69 -7 132 l0 114 -70 0 c-56 0
-70 3 -70 15 0 17 -16 20 -25 5z"/>
<path d="M10238 3612 l4 -58 34 2 c19 2 39 6 44 9 5 3 11 1 15 -5 4 -6 88 -10
226 -10 l219 0 -1 60 -2 60 -271 0 -271 0 3 -58z"/>
<path d="M8419 3640 c0 -8 -2 -129 -2 -269 l-2 -253 -75 -28 c-120 -45 -362
-130 -395 -140 -16 -4 -91 -29 -165 -55 -172 -60 -306 -94 -397 -102 -52 -4
-73 -10 -73 -20 0 -9 8 -12 23 -9 12 3 49 8 82 11 93 10 176 31 355 91 91 30
179 59 195 65 67 24 312 111 335 119 32 11 84 32 135 54 22 10 80 34 128 54
68 29 87 41 84 54 -3 9 1 19 9 22 10 4 14 -2 14 -20 0 -22 2 -24 21 -13 25 13
139 46 229 65 54 12 211 26 283 25 9 0 15 5 11 10 -3 6 -20 9 -37 7 l-31 -3 3
173 c2 138 0 172 -11 174 -7 1 -172 2 -365 2 -307 1 -353 -1 -354 -14z"/>
<path d="M2361 3365 l-1 -95 210 0 210 0 0 95 0 95 -209 0 -208 0 -2 -95z"/>
<path d="M15766 3395 c-3 -8 3 -19 12 -25 13 -7 14 -11 4 -18 -9 -6 -12 -29
-10 -73 l3 -64 98 -3 97 -3 0 100 0 101 -99 0 c-78 0 -100 -3 -105 -15z"/>
<path d="M15501 3263 c0 -54 4 -120 9 -148 7 -50 8 -51 15 -5 7 53 24 82 44
75 13 -4 23 0 30 12 8 15 11 10 12 -27 1 -25 1 -56 0 -68 -1 -15 2 -21 8 -17
6 3 12 0 12 -7 4 -37 17 100 18 185 l1 97 -75 0 -75 0 1 -97z"/>
<path d="M14014 3253 c-5 -16 -22 -18 -185 -18 -172 0 -179 -1 -180 -20 -1
-28 -1 -227 0 -313 1 -47 5 -71 11 -67 6 4 7 11 4 17 -4 6 -1 14 6 18 7 5 14
31 16 60 1 28 6 55 10 58 4 4 4 -5 1 -19 -14 -58 50 -90 79 -38 15 28 19 9 4
-21 -5 -11 -14 -29 -20 -40 -15 -29 -12 -37 5 -14 8 11 15 14 15 7 0 -8 9 -4
21 8 18 18 20 25 10 41 -9 14 -8 18 1 16 8 -2 12 6 11 22 -2 22 -1 23 8 7 6
-11 7 -23 1 -30 -9 -12 10 -62 20 -52 3 3 11 -1 18 -10 7 -8 20 -15 29 -14 11
0 9 3 -6 9 -24 10 -30 25 -13 35 6 4 8 9 6 13 -2 4 8 8 22 8 15 1 22 0 16 -3
-17 -6 -5 -43 13 -43 10 0 14 7 10 20 -7 29 11 25 41 -10 25 -28 51 -42 37
-20 -3 6 -2 10 4 10 5 0 13 -4 16 -10 3 -5 12 -10 18 -10 7 0 4 5 -5 11 -10 5
-18 15 -18 22 0 14 39 41 48 33 3 -3 1 -6 -5 -6 -6 0 -8 -11 -6 -23 4 -19 10
-23 28 -19 13 2 26 12 28 21 3 14 5 14 12 -3 5 -12 3 -21 -6 -27 -12 -8 -10
-12 6 -25 11 -8 19 -19 18 -23 -1 -4 5 -8 13 -8 12 0 15 8 12 29 -5 31 -4 32
23 18 24 -13 25 -36 2 -50 -17 -10 -17 -10 0 -20 9 -6 17 -19 18 -28 0 -11 2
-12 6 -4 3 7 -1 19 -7 27 -10 12 -10 18 0 30 7 8 10 21 7 28 -3 7 4 19 14 25
16 10 19 9 19 -3 0 -8 4 -15 8 -15 5 0 13 -21 19 -47 8 -38 11 3 12 199 l1
248 -71 -5 c-64 -4 -72 -2 -76 16 -5 16 -14 19 -75 19 -58 0 -71 -3 -74 -17z"/>
<path d="M9090 3193 c-102 -18 -295 -75 -497 -148 -16 -5 0 -51 16 -47 7 1 22
-10 36 -25 l23 -28 11 28 c12 31 14 32 34 12 12 -12 21 -12 47 -3 23 8 28 13
18 19 -10 7 -10 9 0 9 7 0 15 -7 18 -15 4 -8 11 -12 18 -8 6 4 25 8 42 8 24 0
30 -4 26 -15 -5 -13 -4 -13 12 0 16 12 19 12 27 -3 13 -23 36 -21 42 3 5 21
32 18 52 -6 6 -6 20 -14 33 -17 17 -4 22 -1 22 14 0 10 4 19 9 19 5 0 12 8 14
18 3 9 6 -1 7 -23 1 -22 6 -51 10 -65 8 -25 8 -25 10 5 2 25 3 26 7 7 3 -13
-1 -30 -7 -38 -10 -11 -9 -14 4 -14 14 0 16 19 16 160 0 122 -3 160 -12 159
-7 -1 -24 -4 -38 -6z"/>
<path d="M11949 3176 c-2 -3 -40 -7 -84 -10 -108 -8 -169 -14 -240 -27 -103
-18 -279 -62 -300 -74 -11 -7 -36 -15 -55 -19 -39 -7 -283 -102 -317 -124 -24
-15 -31 -34 -10 -27 29 9 114 13 132 5 18 -8 18 -9 -5 -9 -193 -5 -260 -17
-260 -47 0 -20 27 -17 39 4 9 15 12 15 20 2 13 -20 78 -23 85 -4 7 19 26 18
26 -1 0 -20 54 -20 73 0 13 13 16 13 21 0 3 -9 18 -15 36 -15 16 0 30 -4 30
-10 0 -14 -54 -12 -68 2 -10 10 -14 10 -20 1 -6 -9 -54 -14 -157 -16 -140 -3
-205 -15 -205 -38 0 -4 75 -8 168 -9 92 -2 187 -4 212 -5 25 -2 64 -3 88 -4
23 0 42 -4 42 -8 0 -8 -62 -10 -382 -13 -195 -2 -196 -2 -219 -26 -21 -23 -21
-24 -4 -18 11 4 25 14 31 22 9 13 12 13 17 -2 8 -22 77 -23 77 -1 0 8 5 15 10
15 6 0 10 -7 10 -15 0 -23 77 -21 83 3 4 14 5 15 6 1 2 -29 91 -32 91 -3 0 8
5 14 10 14 6 0 10 -8 10 -17 0 -14 10 -19 40 -21 30 -2 40 1 40 12 0 8 5 18
12 22 8 5 9 0 6 -14 -7 -25 -16 -23 175 -24 55 -1 94 -5 89 -10 -4 -4 -179
-11 -388 -14 -372 -5 -379 -6 -401 -27 l-23 -22 208 0 c334 0 543 -6 537 -15
-3 -5 -45 -10 -93 -10 -48 -1 -112 -3 -142 -5 -30 -1 -94 -3 -142 -4 -81 -1
-86 -2 -81 -21 7 -27 79 -29 86 -2 4 16 5 16 6 0 1 -14 10 -18 41 -18 31 0 40
4 40 18 1 16 1 16 14 0 17 -23 86 -25 86 -3 0 21 17 19 23 -4 5 -19 20 -21
264 -23 57 0 100 -4 98 -8 -3 -5 -110 -9 -238 -9 -127 -1 -365 -4 -527 -7
-264 -4 -296 -6 -307 -22 -11 -16 6 -17 280 -17 379 1 715 -8 700 -18 -7 -4
-34 -7 -60 -6 -26 0 -156 -2 -288 -5 -132 -3 -302 -6 -377 -6 -131 0 -138 -1
-138 -20 0 -16 7 -20 35 -20 22 0 38 6 41 15 4 8 10 15 15 15 5 0 9 -7 9 -15
0 -10 11 -15 35 -15 24 0 35 5 35 15 0 8 5 15 11 15 6 0 9 -8 7 -17 -5 -18 -3
-18 80 -14 6 1 12 8 12 16 0 8 5 15 10 15 6 0 10 -8 10 -18 0 -16 11 -18 84
-21 81 -2 85 -1 89 21 l4 23 8 -22 c9 -27 -85 -25 975 -25 1302 -1 1281 -1
1287 22 3 11 10 20 15 20 6 0 8 -8 5 -19 -7 -28 47 -20 73 10 l20 24 6 -23 c6
-23 32 -27 46 -7 5 6 8 5 8 -2 0 -7 5 -13 10 -13 6 0 10 7 10 15 0 9 -10 15
-26 15 -14 0 -34 5 -45 11 -14 7 -24 7 -33 0 -7 -6 -15 -8 -18 -5 -3 3 -83 7
-178 9 -155 3 -192 7 -179 19 2 2 110 8 239 12 129 5 222 10 205 12 -16 2 -32
8 -35 12 -7 12 -140 20 -337 20 -109 1 -163 5 -163 12 0 7 18 9 50 6 28 -3 50
-1 50 3 0 5 -4 9 -10 9 -5 0 -10 7 -10 15 0 21 17 19 23 -4 3 -13 16 -20 45
-23 35 -3 39 -1 31 14 -11 21 -11 28 0 28 5 0 11 -8 13 -17 5 -27 88 -27 88
-1 0 10 5 18 10 18 6 0 10 -7 10 -15 0 -11 11 -15 40 -15 31 0 38 3 34 15 -4
9 0 15 10 15 9 0 16 -7 16 -15 0 -10 10 -15 29 -15 16 0 31 6 35 15 3 8 12 15
21 15 8 0 15 -7 15 -15 0 -8 5 -15 11 -15 6 0 9 8 7 18 -4 19 -3 19 -191 22
-64 2 -120 6 -123 11 -6 10 -54 8 -54 -3 0 -4 -10 -4 -22 1 -13 4 -44 7 -70 6
-27 -1 -48 2 -48 6 0 5 75 9 168 10 145 1 369 13 320 17 -10 1 -18 9 -18 17 0
12 -18 15 -92 17 -51 1 -109 2 -128 3 -19 1 -70 3 -112 4 -49 1 -78 5 -78 12
0 7 18 10 48 8 97 -5 122 -1 122 21 0 21 15 27 25 10 4 -6 1 -19 -7 -28 -11
-15 -11 -15 3 -5 8 7 25 10 38 6 17 -4 23 -1 28 16 7 27 29 27 36 0 4 -16 9
-19 24 -11 11 6 25 7 35 1 12 -7 17 -3 20 16 4 19 2 23 -7 15 -6 -5 -14 -8
-17 -5 -2 3 -38 9 -79 13 -41 5 -83 13 -93 17 -12 5 -17 5 -13 -1 3 -6 -9 -10
-29 -11 -35 -1 -39 7 -6 15 19 4 96 11 182 15 30 2 56 6 58 10 6 18 -1 24 -30
24 -58 2 -111 12 -119 24 -5 8 -8 8 -13 0 -20 -31 -105 3 -91 36 7 17 8 16 17
-4 14 -28 38 -38 39 -15 0 10 3 12 6 5 7 -20 20 -15 27 10 l6 22 18 -23 c21
-27 72 -28 72 0 0 10 5 18 10 18 6 0 10 7 10 16 0 13 -2 13 -14 2 -15 -15 -86
-12 -86 3 0 5 -8 9 -17 9 -16 0 -16 -2 -3 -11 12 -8 12 -10 -4 -7 -11 2 -21 9
-24 17 -4 11 3 13 31 8 20 -3 39 -2 41 2 3 3 26 5 52 4 47 -3 47 -2 26 13 -13
9 -57 28 -100 44 -42 16 -103 40 -135 54 -32 14 -67 26 -78 26 -11 0 -30 6
-42 14 -49 31 -341 85 -568 106 -115 10 -362 14 -370 6z"/>
<path d="M6570 2635 c0 -19 3 -35 8 -35 4 -1 96 -2 205 -3 l197 -2 -1 40 c0
22 -3 34 -6 28 -6 -16 -338 -18 -377 -3 -25 9 -26 8 -26 -25z"/>
<path d="M6570 2535 c0 -11 4 -25 8 -30 4 -6 83 -10 205 -11 l197 0 0 28 0 27
-205 3 c-199 3 -205 2 -205 -17z"/>
<path d="M10785 2340 c-258 -4 -471 -8 -472 -8 -30 -20 144 -22 1546 -22 1477
0 1583 2 1558 26 -8 8 -2144 11 -2632 4z"/>
<path d="M9897 2154 c-4 -4 -97 -6 -207 -5 -161 2 -199 0 -195 -11 3 -7 -8
-20 -25 -30 -33 -19 -40 -48 -12 -48 9 0 39 12 65 26 49 26 84 26 74 0 -3 -8
1 -17 9 -20 8 -3 14 -12 14 -21 0 -17 16 -21 22 -5 2 5 12 11 23 13 54 10 82
22 103 44 12 13 22 28 22 34 0 5 7 9 16 9 8 0 12 -4 9 -10 -3 -5 -1 -10 4 -10
6 0 11 3 11 8 0 4 19 6 43 6 32 -1 51 -8 73 -29 31 -29 24 -29 166 -6 33 5 64
17 76 29 l20 20 -139 1 c-77 1 -145 4 -152 7 -7 2 -16 2 -20 -2z"/>
<path d="M8886 2133 c-4 -9 -1 -20 6 -25 18 -11 66 -10 90 3 15 8 23 8 31 0 9
-9 6 -13 -11 -17 -39 -11 -21 -42 30 -51 29 -4 40 -1 55 17 10 12 28 26 41 31
12 5 22 15 22 23 0 20 -67 33 -92 17 -15 -9 -20 -8 -24 4 -9 23 -139 22 -148
-2z"/>
<path d="M8420 1565 l0 -65 360 1 c267 0 360 3 360 11 0 20 20 -5 46 -58 13
-27 24 -44 24 -37 0 22 -21 68 -43 91 -16 17 -20 33 -18 64 1 24 7 46 13 50 7
3 -158 7 -365 7 l-377 1 0 -65z"/>
<path d="M8123 1612 c-121 -3 -130 -5 -123 -37 1 -5 2 -22 2 -37 1 -22 9 -31
42 -46 23 -11 54 -22 69 -26 16 -4 39 -18 52 -32 15 -17 34 -25 59 -26 20 -1
39 -5 42 -10 7 -11 41 -10 48 1 4 5 -5 8 -19 7 -21 -3 -23 0 -14 15 5 11 16
16 24 13 11 -5 15 1 15 21 0 14 -4 24 -9 21 -15 -10 -40 40 -44 90 -3 27 -8
48 -13 49 -5 0 -64 -1 -131 -3z"/>
<path d="M22115 5628 c-3 -7 -6 -37 -8 -66 l-2 -53 220 -2 220 -2 3 54 c4 68
-2 88 -22 68 -16 -16 -277 -23 -337 -8 -34 8 -36 7 -31 -12 3 -14 1 -18 -6
-13 -7 4 -12 13 -12 21 0 19 -19 29 -25 13z"/>
<path d="M22102 5423 c0 -32 0 -96 -1 -143 -1 -47 -2 -158 -1 -247 l0 -163
225 0 c124 0 225 3 226 8 1 9 1 460 0 540 l-1 62 -225 0 -224 0 1 -57z"/>
<path d="M24068 5303 l-137 -4 -22 -36 c-42 -68 -51 -132 -56 -410 -5 -281 -7
-268 45 -263 14 1 22 -4 22 -14 0 -11 -10 -16 -33 -16 l-33 0 2 -142 c1 -79 3
-339 5 -578 3 -337 5 -393 9 -250 3 102 7 177 8 167 1 -12 6 -15 15 -10 14 9
132 15 166 7 l24 -5 -22 -23 c-15 -15 -19 -26 -12 -31 17 -10 29 2 36 36 5 22
10 28 18 20 7 -7 6 -15 -3 -26 -10 -12 -10 -15 0 -15 10 0 11 -15 8 -57 -3
-32 -2 -69 2 -83 7 -21 8 -18 7 15 0 22 1 74 3 115 4 73 4 71 10 -40 4 -73 7
22 8 255 2 204 5 528 8 721 5 303 3 352 -10 363 -8 7 -21 11 -30 9 -8 -2 -15
2 -15 7 0 6 7 9 15 7 23 -5 44 17 44 45 0 42 31 177 44 193 16 18 28 51 18 48
-4 -1 -69 -4 -144 -5z"/>
<path d="M24237 5282 c-9 -10 -23 -34 -32 -55 -20 -48 -47 -176 -39 -188 3 -5
16 -9 30 -9 34 0 31 -28 -3 -32 l-28 -3 1 -230 c0 -126 2 -337 4 -467 l3 -238
51 0 c29 0 57 5 62 10 7 7 19 3 38 -15 15 -14 29 -25 32 -25 7 0 -14 36 -30
53 -8 8 -11 19 -6 27 5 9 12 4 22 -16 8 -16 20 -28 27 -26 9 2 12 -4 9 -16 -4
-12 1 -18 13 -19 16 -2 19 6 19 40 1 23 3 225 6 450 6 405 6 407 -14 407 -32
0 -36 19 -8 30 30 11 35 40 7 40 -31 0 -35 19 -7 30 14 5 26 16 26 23 0 37
-43 176 -65 209 -22 33 -30 38 -64 38 -24 0 -44 -7 -54 -18z"/>
<path d="M17546 5158 c-3 -29 -6 -291 -6 -581 0 -498 1 -528 18 -525 16 3 17
31 20 388 4 403 -5 770 -18 770 -4 0 -10 -24 -14 -52z"/>
<path d="M22583 5094 c-2 -6 -5 -31 -6 -55 l-2 -44 128 -2 127 -2 0 54 0 54
-121 3 c-81 2 -123 -1 -126 -8z"/>
<path d="M21852 4778 l3 -193 112 -3 112 -3 1 196 0 195 -115 0 -115 0 2 -192z"/>
<path d="M22098 4743 c-2 -65 1 -124 6 -131 7 -9 5 -16 -4 -22 -7 -4 -10 -15
-7 -24 6 -14 34 -16 231 -16 185 0 225 2 229 14 3 8 -1 20 -9 27 -9 7 -11 15
-5 18 8 5 16 175 12 239 -1 9 -53 12 -225 12 l-225 0 -3 -117z"/>
<path d="M21850 4548 c0 -2 -1 -91 -1 -198 l-1 -195 113 0 114 0 3 198 2 197
-115 0 c-63 0 -115 -1 -115 -2z"/>
<path d="M22106 4533 c-12 -12 -6 -151 7 -157 10 -5 10 -7 0 -12 -14 -6 -18
-34 -5 -34 4 -1 105 -2 225 -3 198 -2 217 -1 217 15 0 15 -20 17 -207 17 -115
0 -208 4 -208 8 0 4 93 9 208 11 l207 2 0 80 0 81 -219 -1 c-120 -1 -222 -4
-225 -7z"/>
<path d="M22100 4126 c0 -62 0 -63 25 -58 24 4 36 22 15 22 -5 0 -10 4 -10 10
0 5 7 7 15 4 10 -4 15 0 15 11 0 9 -4 13 -10 10 -5 -3 -10 -1 -10 5 0 13 34 5
68 -17 25 -16 180 -15 215 1 11 5 17 4 17 -3 0 -6 -10 -12 -22 -12 -15 -1 -10
-4 12 -8 19 -4 -34 -5 -117 -3 -96 1 -153 -1 -153 -7 0 -6 66 -11 165 -13
l164 -3 -3 27 c-2 15 0 25 5 23 4 -3 10 5 12 17 2 13 3 4 1 -20 -1 -23 1 -44
5 -46 13 -9 34 12 28 28 -4 9 -2 16 3 16 6 0 10 18 10 40 l0 40 -225 0 -225 0
0 -64z"/>
<path d="M21845 4055 l0 -65 40 -2 c22 0 49 0 59 1 38 3 53 -24 50 -95 -2 -36
-6 -69 -9 -73 -4 -3 -5 27 -3 67 2 58 0 73 -12 77 -8 2 -342 4 -741 3 -400 0
-731 2 -737 6 -21 13 -33 -23 -31 -93 1 -38 5 -75 9 -80 4 -8 226 -10 756 -7
653 4 778 6 842 14 9 2 12 41 12 157 l0 155 -118 0 -117 0 0 -65z"/>
<path d="M17488 4013 c-2 -5 0 -107 3 -228 4 -121 6 -276 4 -345 -2 -102 -1
-110 4 -45 7 74 7 71 8 -50 0 -78 -2 -118 -7 -100 -6 24 -8 20 -8 -25 0 -30 2
-47 5 -37 2 9 9 17 14 17 5 0 9 165 9 410 0 350 -2 410 -14 410 -8 0 -16 -3
-18 -7z"/>
<path d="M17541 3723 c1 -164 5 -343 9 -398 l7 -100 2 110 c3 118 6 123 20 30
9 -56 9 -54 6 35 -2 68 -1 81 5 45 4 -27 7 -44 8 -37 1 6 13 12 26 12 14 0 28
5 32 11 4 8 9 7 16 -2 7 -10 8 -2 4 24 -4 33 -3 36 14 27 21 -11 28 -53 21
-125 l-5 -50 -7 45 c-4 25 -5 0 -2 -55 2 -55 1 -134 -4 -176 -5 -42 -6 -96 -3
-120 4 -34 6 -21 11 56 l5 100 2 -106 2 -105 -55 -2 c-31 -1 -63 -6 -73 -12
-13 -9 -3 -10 42 -5 38 3 63 1 72 -6 8 -7 16 -10 19 -8 10 10 14 165 15 496
l0 352 178 -1 177 0 5 87 c3 52 1 90 -5 95 -5 5 -57 8 -115 8 -138 1 -132 0
-128 15 3 8 42 14 129 17 101 4 124 8 124 20 0 13 -39 15 -277 18 l-278 2 1
-297z"/>
<path d="M17768 3667 c-2 -34 -2 -65 0 -69 2 -5 75 -8 163 -8 152 0 159 -1
159 -20 0 -19 -7 -20 -129 -20 -126 0 -130 -1 -134 -22 l-4 -23 -2 23 c-1 16
-7 22 -25 22 -18 0 -25 -6 -28 -28 -5 -38 0 -52 20 -52 15 0 15 2 2 10 -13 8
-12 10 3 10 9 0 17 -4 17 -8 0 -5 36 -9 80 -9 62 0 80 3 80 13 0 8 7 14 15 14
8 0 15 4 15 10 0 11 27 2 60 -22 13 -10 21 -21 17 -25 -4 -3 -21 4 -38 16 -27
20 -33 21 -46 9 -13 -13 -10 -17 21 -32 20 -9 36 -21 36 -25 0 -15 52 -23 61
-10 4 6 14 9 23 6 8 -3 22 1 31 9 13 14 15 8 13 -58 l-1 -73 -6 55 c-5 46 -9
55 -25 55 -11 0 -21 -6 -24 -13 -2 -6 3 -12 12 -12 14 0 13 -5 -4 -37 l-20
-38 22 -4 c13 -1 26 -8 30 -15 4 -6 7 -83 6 -171 -1 -110 -4 -144 -8 -110 -7
48 -7 48 -5 -13 2 -51 0 -62 -11 -58 -18 7 -18 -8 1 -24 12 -10 16 -6 27 22
11 25 15 124 17 409 l3 376 -210 1 -210 2 -4 -63z"/>
<path d="M17853 3433 l-83 -4 0 -209 c0 -191 2 -210 17 -210 13 0 14 3 5 12
-17 17 -15 39 2 32 8 -3 17 -15 19 -27 3 -15 5 -11 6 11 1 22 5 31 13 26 7 -4
8 -3 4 5 -6 9 -11 9 -22 0 -12 -10 -14 2 -16 77 l-2 89 -6 -85 -6 -85 -1 115
c-1 70 2 105 7 90 6 -18 8 -6 10 45 1 39 5 79 10 90 7 15 8 11 5 -15 -3 -19
-1 -78 5 -130 l9 -95 -4 107 c-5 113 0 150 17 126 7 -10 11 -10 15 0 2 6 19
11 36 11 31 -1 31 -2 5 -8 -24 -5 -25 -8 -12 -25 13 -18 14 -19 14 -2 0 13 5
17 20 13 11 -3 18 -1 14 4 -3 5 1 9 9 9 16 0 30 24 20 34 -4 3 -11 5 -17 4 -6
-1 -48 -4 -93 -5z"/>
<path d="M17570 2810 l0 -70 -30 0 -30 0 1 -157 c1 -95 4 -146 9 -128 4 17 8
26 9 20 3 -20 21 21 22 50 1 24 3 25 6 8 2 -13 9 -23 14 -23 5 0 9 10 10 23 0
21 1 21 10 -3 8 -19 12 -22 19 -10 9 14 11 8 23 -55 4 -25 20 118 21 198 l1
58 223 2 c216 2 223 1 227 -18 2 -11 6 -68 8 -128 4 -101 9 -128 23 -115 3 3
7 19 9 34 6 50 8 50 15 4 4 -26 8 45 8 168 l2 212 -300 0 -300 0 0 -70z"/>
<path d="M17708 2548 c3 -62 9 -122 13 -133 8 -17 9 -16 5 5 -6 32 3 72 15 64
5 -3 9 6 9 19 0 23 1 24 58 16 130 -17 151 -18 145 -3 -3 8 0 14 5 14 6 0 13
-10 15 -22 l4 -23 8 22 c6 19 9 20 21 8 8 -7 14 -21 14 -30 0 -12 4 -14 18 -6
16 8 19 24 21 95 l2 86 -179 0 -178 0 4 -112z"/>
<path d="M23150 2283 c0 -69 1 -73 23 -72 12 0 16 3 10 6 -7 2 -12 14 -12 26
1 17 2 18 6 5 3 -10 14 -18 26 -18 18 0 19 2 7 10 -10 8 21 10 104 8 91 -2
120 0 124 10 3 10 9 10 27 -2 19 -12 26 -13 48 -1 31 16 46 2 23 -21 -20 -19
-20 -24 -2 -24 7 0 16 9 19 19 4 16 14 20 53 20 27 1 56 2 64 2 40 5 60 -2 60
-20 0 -21 26 -36 35 -21 4 6 -1 10 -9 10 -9 0 -16 9 -16 20 0 12 7 20 16 20
14 0 15 -2 3 -17 -13 -15 -11 -16 16 -9 17 4 31 11 33 14 4 12 141 7 154 -6
13 -13 38 -16 38 -4 0 4 9 8 20 9 14 1 20 -4 20 -18 0 -12 5 -19 13 -17 8 3
13 30 15 75 l3 70 -461 -1 -460 -1 0 -72z"/>
<path d="M20650 2260 c-22 -22 -43 -40 -47 -40 -5 0 -26 9 -48 20 -47 24 -59
25 -75 5 -7 -8 -22 -15 -34 -15 -20 0 -46 -17 -46 -30 0 -3 94 -5 210 -5 158
0 210 3 210 12 0 7 -10 18 -22 24 -13 7 -39 25 -58 41 -19 15 -38 28 -43 28
-4 0 -25 -18 -47 -40z"/>
</g>
</svg>
